<mxfile host="www.draw.io" modified="2020-04-13T12:48:23.857Z" agent="5.0 (Macintosh; Intel Mac OS X 10_15_4) AppleWebKit/537.36 (KHTML, like Gecko) Chrome/80.0.3987.163 Safari/537.36" etag="cpUmahGQImnyOj66JKu0" version="12.9.10" type="github" pages="2">
  <diagram id="n-F0v8olKahUGcoaK9ZK" name="cost-defintions">
    <mxGraphModel dx="1026" dy="526" grid="1" gridSize="10" guides="1" tooltips="1" connect="1" arrows="1" fold="1" page="1" pageScale="1" pageWidth="850" pageHeight="1100" math="1" shadow="0">
      <root>
        <mxCell id="0" />
        <mxCell id="1" parent="0" />
        <mxCell id="WGFTEza84kzCz2_i6lYA-45" value="" style="whiteSpace=wrap;html=1;aspect=fixed;" parent="1" vertex="1">
          <mxGeometry x="440" y="120" width="40" height="40" as="geometry" />
        </mxCell>
        <mxCell id="WGFTEza84kzCz2_i6lYA-47" value="" style="whiteSpace=wrap;html=1;aspect=fixed;" parent="1" vertex="1">
          <mxGeometry x="560" y="120" width="40" height="40" as="geometry" />
        </mxCell>
        <mxCell id="WGFTEza84kzCz2_i6lYA-1" value="" style="whiteSpace=wrap;html=1;aspect=fixed;fillColor=#dae8fc;strokeColor=#6c8ebf;" parent="1" vertex="1">
          <mxGeometry x="80" y="120" width="40" height="40" as="geometry" />
        </mxCell>
        <mxCell id="WGFTEza84kzCz2_i6lYA-2" value="" style="whiteSpace=wrap;html=1;aspect=fixed;fillColor=#dae8fc;strokeColor=#6c8ebf;" parent="1" vertex="1">
          <mxGeometry x="120" y="120" width="40" height="40" as="geometry" />
        </mxCell>
        <mxCell id="WGFTEza84kzCz2_i6lYA-3" value="" style="whiteSpace=wrap;html=1;aspect=fixed;" parent="1" vertex="1">
          <mxGeometry x="200" y="120" width="40" height="40" as="geometry" />
        </mxCell>
        <mxCell id="WGFTEza84kzCz2_i6lYA-4" value="" style="whiteSpace=wrap;html=1;aspect=fixed;" parent="1" vertex="1">
          <mxGeometry x="240" y="120" width="40" height="40" as="geometry" />
        </mxCell>
        <mxCell id="WGFTEza84kzCz2_i6lYA-7" value="" style="whiteSpace=wrap;html=1;aspect=fixed;" parent="1" vertex="1">
          <mxGeometry x="160" y="120" width="40" height="40" as="geometry" />
        </mxCell>
        <mxCell id="WGFTEza84kzCz2_i6lYA-8" value="" style="whiteSpace=wrap;html=1;aspect=fixed;" parent="1" vertex="1">
          <mxGeometry x="280" y="120" width="40" height="40" as="geometry" />
        </mxCell>
        <mxCell id="WGFTEza84kzCz2_i6lYA-9" value="" style="whiteSpace=wrap;html=1;aspect=fixed;" parent="1" vertex="1">
          <mxGeometry x="320" y="120" width="40" height="40" as="geometry" />
        </mxCell>
        <mxCell id="WGFTEza84kzCz2_i6lYA-10" value="" style="whiteSpace=wrap;html=1;aspect=fixed;fillColor=#dae8fc;strokeColor=#6c8ebf;" parent="1" vertex="1">
          <mxGeometry x="80" y="160" width="40" height="40" as="geometry" />
        </mxCell>
        <mxCell id="WGFTEza84kzCz2_i6lYA-11" value="" style="whiteSpace=wrap;html=1;aspect=fixed;fillColor=#dae8fc;strokeColor=#6c8ebf;" parent="1" vertex="1">
          <mxGeometry x="120" y="160" width="40" height="40" as="geometry" />
        </mxCell>
        <mxCell id="WGFTEza84kzCz2_i6lYA-12" value="" style="whiteSpace=wrap;html=1;aspect=fixed;" parent="1" vertex="1">
          <mxGeometry x="200" y="160" width="40" height="40" as="geometry" />
        </mxCell>
        <mxCell id="WGFTEza84kzCz2_i6lYA-13" value="" style="whiteSpace=wrap;html=1;aspect=fixed;fillColor=#dae8fc;strokeColor=#6c8ebf;" parent="1" vertex="1">
          <mxGeometry x="240" y="160" width="40" height="40" as="geometry" />
        </mxCell>
        <mxCell id="WGFTEza84kzCz2_i6lYA-14" value="" style="whiteSpace=wrap;html=1;aspect=fixed;" parent="1" vertex="1">
          <mxGeometry x="160" y="160" width="40" height="40" as="geometry" />
        </mxCell>
        <mxCell id="WGFTEza84kzCz2_i6lYA-15" value="" style="whiteSpace=wrap;html=1;aspect=fixed;fillColor=#dae8fc;strokeColor=#6c8ebf;" parent="1" vertex="1">
          <mxGeometry x="280" y="160" width="40" height="40" as="geometry" />
        </mxCell>
        <mxCell id="WGFTEza84kzCz2_i6lYA-16" value="" style="whiteSpace=wrap;html=1;aspect=fixed;" parent="1" vertex="1">
          <mxGeometry x="320" y="160" width="40" height="40" as="geometry" />
        </mxCell>
        <mxCell id="WGFTEza84kzCz2_i6lYA-17" value="G" style="whiteSpace=wrap;html=1;aspect=fixed;fillColor=#f8cecc;strokeColor=#b85450;" parent="1" vertex="1">
          <mxGeometry x="80" y="200" width="40" height="40" as="geometry" />
        </mxCell>
        <mxCell id="WGFTEza84kzCz2_i6lYA-18" value="" style="whiteSpace=wrap;html=1;aspect=fixed;" parent="1" vertex="1">
          <mxGeometry x="120" y="200" width="40" height="40" as="geometry" />
        </mxCell>
        <mxCell id="WGFTEza84kzCz2_i6lYA-19" value="" style="whiteSpace=wrap;html=1;aspect=fixed;" parent="1" vertex="1">
          <mxGeometry x="200" y="200" width="40" height="40" as="geometry" />
        </mxCell>
        <mxCell id="WGFTEza84kzCz2_i6lYA-20" value="" style="whiteSpace=wrap;html=1;aspect=fixed;" parent="1" vertex="1">
          <mxGeometry x="240" y="200" width="40" height="40" as="geometry" />
        </mxCell>
        <mxCell id="WGFTEza84kzCz2_i6lYA-21" value="" style="whiteSpace=wrap;html=1;aspect=fixed;" parent="1" vertex="1">
          <mxGeometry x="160" y="200" width="40" height="40" as="geometry" />
        </mxCell>
        <mxCell id="WGFTEza84kzCz2_i6lYA-22" value="" style="whiteSpace=wrap;html=1;aspect=fixed;" parent="1" vertex="1">
          <mxGeometry x="280" y="200" width="40" height="40" as="geometry" />
        </mxCell>
        <mxCell id="WGFTEza84kzCz2_i6lYA-23" value="" style="whiteSpace=wrap;html=1;aspect=fixed;" parent="1" vertex="1">
          <mxGeometry x="320" y="200" width="40" height="40" as="geometry" />
        </mxCell>
        <mxCell id="WGFTEza84kzCz2_i6lYA-24" value="" style="whiteSpace=wrap;html=1;aspect=fixed;fillColor=#dae8fc;strokeColor=#6c8ebf;" parent="1" vertex="1">
          <mxGeometry x="80" y="240" width="40" height="40" as="geometry" />
        </mxCell>
        <mxCell id="WGFTEza84kzCz2_i6lYA-25" value="" style="whiteSpace=wrap;html=1;aspect=fixed;fillColor=#dae8fc;strokeColor=#6c8ebf;" parent="1" vertex="1">
          <mxGeometry x="120" y="240" width="40" height="40" as="geometry" />
        </mxCell>
        <mxCell id="WGFTEza84kzCz2_i6lYA-26" value="" style="whiteSpace=wrap;html=1;aspect=fixed;" parent="1" vertex="1">
          <mxGeometry x="200" y="240" width="40" height="40" as="geometry" />
        </mxCell>
        <mxCell id="WGFTEza84kzCz2_i6lYA-27" value="" style="whiteSpace=wrap;html=1;aspect=fixed;fillColor=#dae8fc;strokeColor=#6c8ebf;" parent="1" vertex="1">
          <mxGeometry x="240" y="240" width="40" height="40" as="geometry" />
        </mxCell>
        <mxCell id="WGFTEza84kzCz2_i6lYA-28" value="" style="whiteSpace=wrap;html=1;aspect=fixed;fillColor=#dae8fc;strokeColor=#6c8ebf;" parent="1" vertex="1">
          <mxGeometry x="160" y="240" width="40" height="40" as="geometry" />
        </mxCell>
        <mxCell id="WGFTEza84kzCz2_i6lYA-29" value="" style="whiteSpace=wrap;html=1;aspect=fixed;fillColor=#dae8fc;strokeColor=#6c8ebf;" parent="1" vertex="1">
          <mxGeometry x="280" y="240" width="40" height="40" as="geometry" />
        </mxCell>
        <mxCell id="WGFTEza84kzCz2_i6lYA-30" value="" style="whiteSpace=wrap;html=1;aspect=fixed;fillColor=#dae8fc;strokeColor=#6c8ebf;" parent="1" vertex="1">
          <mxGeometry x="320" y="240" width="40" height="40" as="geometry" />
        </mxCell>
        <mxCell id="WGFTEza84kzCz2_i6lYA-31" value="" style="whiteSpace=wrap;html=1;aspect=fixed;fillColor=#dae8fc;strokeColor=#6c8ebf;" parent="1" vertex="1">
          <mxGeometry x="80" y="280" width="40" height="40" as="geometry" />
        </mxCell>
        <mxCell id="WGFTEza84kzCz2_i6lYA-32" value="" style="whiteSpace=wrap;html=1;aspect=fixed;fillColor=#dae8fc;strokeColor=#6c8ebf;" parent="1" vertex="1">
          <mxGeometry x="120" y="280" width="40" height="40" as="geometry" />
        </mxCell>
        <mxCell id="WGFTEza84kzCz2_i6lYA-33" value="" style="whiteSpace=wrap;html=1;aspect=fixed;" parent="1" vertex="1">
          <mxGeometry x="200" y="280" width="40" height="40" as="geometry" />
        </mxCell>
        <mxCell id="WGFTEza84kzCz2_i6lYA-34" value="" style="whiteSpace=wrap;html=1;aspect=fixed;fillColor=#dae8fc;strokeColor=#6c8ebf;" parent="1" vertex="1">
          <mxGeometry x="240" y="280" width="40" height="40" as="geometry" />
        </mxCell>
        <mxCell id="WGFTEza84kzCz2_i6lYA-35" value="" style="whiteSpace=wrap;html=1;aspect=fixed;fillColor=#dae8fc;strokeColor=#6c8ebf;" parent="1" vertex="1">
          <mxGeometry x="160" y="280" width="40" height="40" as="geometry" />
        </mxCell>
        <mxCell id="WGFTEza84kzCz2_i6lYA-36" value="" style="whiteSpace=wrap;html=1;aspect=fixed;fillColor=#dae8fc;strokeColor=#6c8ebf;" parent="1" vertex="1">
          <mxGeometry x="280" y="280" width="40" height="40" as="geometry" />
        </mxCell>
        <mxCell id="WGFTEza84kzCz2_i6lYA-37" value="" style="whiteSpace=wrap;html=1;aspect=fixed;fillColor=#dae8fc;strokeColor=#6c8ebf;" parent="1" vertex="1">
          <mxGeometry x="320" y="280" width="40" height="40" as="geometry" />
        </mxCell>
        <mxCell id="WGFTEza84kzCz2_i6lYA-38" value="" style="whiteSpace=wrap;html=1;aspect=fixed;fillColor=#dae8fc;strokeColor=#6c8ebf;" parent="1" vertex="1">
          <mxGeometry x="80" y="320" width="40" height="40" as="geometry" />
        </mxCell>
        <mxCell id="WGFTEza84kzCz2_i6lYA-39" value="" style="whiteSpace=wrap;html=1;aspect=fixed;fillColor=#dae8fc;strokeColor=#6c8ebf;" parent="1" vertex="1">
          <mxGeometry x="120" y="320" width="40" height="40" as="geometry" />
        </mxCell>
        <mxCell id="WGFTEza84kzCz2_i6lYA-40" value="S" style="whiteSpace=wrap;html=1;aspect=fixed;fillColor=#d5e8d4;strokeColor=#82b366;" parent="1" vertex="1">
          <mxGeometry x="200" y="320" width="40" height="40" as="geometry" />
        </mxCell>
        <mxCell id="WGFTEza84kzCz2_i6lYA-41" value="" style="whiteSpace=wrap;html=1;aspect=fixed;fillColor=#dae8fc;strokeColor=#6c8ebf;" parent="1" vertex="1">
          <mxGeometry x="240" y="320" width="40" height="40" as="geometry" />
        </mxCell>
        <mxCell id="WGFTEza84kzCz2_i6lYA-42" value="" style="whiteSpace=wrap;html=1;aspect=fixed;fillColor=#dae8fc;strokeColor=#6c8ebf;" parent="1" vertex="1">
          <mxGeometry x="160" y="320" width="40" height="40" as="geometry" />
        </mxCell>
        <mxCell id="WGFTEza84kzCz2_i6lYA-43" value="" style="whiteSpace=wrap;html=1;aspect=fixed;fillColor=#dae8fc;strokeColor=#6c8ebf;" parent="1" vertex="1">
          <mxGeometry x="280" y="320" width="40" height="40" as="geometry" />
        </mxCell>
        <mxCell id="WGFTEza84kzCz2_i6lYA-44" value="" style="whiteSpace=wrap;html=1;aspect=fixed;fillColor=#dae8fc;strokeColor=#6c8ebf;" parent="1" vertex="1">
          <mxGeometry x="320" y="320" width="40" height="40" as="geometry" />
        </mxCell>
        <mxCell id="WGFTEza84kzCz2_i6lYA-46" value="" style="whiteSpace=wrap;html=1;aspect=fixed;" parent="1" vertex="1">
          <mxGeometry x="440" y="160" width="40" height="40" as="geometry" />
        </mxCell>
        <mxCell id="WGFTEza84kzCz2_i6lYA-48" value="" style="whiteSpace=wrap;html=1;aspect=fixed;" parent="1" vertex="1">
          <mxGeometry x="520" y="120" width="40" height="40" as="geometry" />
        </mxCell>
        <mxCell id="WGFTEza84kzCz2_i6lYA-49" value="" style="whiteSpace=wrap;html=1;aspect=fixed;" parent="1" vertex="1">
          <mxGeometry x="680" y="120" width="40" height="40" as="geometry" />
        </mxCell>
        <mxCell id="WGFTEza84kzCz2_i6lYA-50" value="" style="whiteSpace=wrap;html=1;aspect=fixed;" parent="1" vertex="1">
          <mxGeometry x="640" y="120" width="40" height="40" as="geometry" />
        </mxCell>
        <mxCell id="WGFTEza84kzCz2_i6lYA-51" value="COST = 1" style="text;html=1;strokeColor=none;fillColor=none;align=center;verticalAlign=middle;whiteSpace=wrap;rounded=0;" parent="1" vertex="1">
          <mxGeometry x="420" y="210" width="80" height="20" as="geometry" />
        </mxCell>
        <mxCell id="WGFTEza84kzCz2_i6lYA-52" value="" style="endArrow=classic;html=1;entryX=0.492;entryY=0.25;entryDx=0;entryDy=0;entryPerimeter=0;" parent="1" target="WGFTEza84kzCz2_i6lYA-45" edge="1">
          <mxGeometry width="50" height="50" relative="1" as="geometry">
            <mxPoint x="460" y="180" as="sourcePoint" />
            <mxPoint x="460" y="410" as="targetPoint" />
          </mxGeometry>
        </mxCell>
        <mxCell id="WGFTEza84kzCz2_i6lYA-53" value="" style="endArrow=classic;html=1;entryX=0.5;entryY=0.5;entryDx=0;entryDy=0;entryPerimeter=0;" parent="1" target="WGFTEza84kzCz2_i6lYA-48" edge="1">
          <mxGeometry width="50" height="50" relative="1" as="geometry">
            <mxPoint x="580" y="140" as="sourcePoint" />
            <mxPoint x="460" y="410" as="targetPoint" />
          </mxGeometry>
        </mxCell>
        <mxCell id="WGFTEza84kzCz2_i6lYA-55" value="" style="endArrow=classic;html=1;" parent="1" edge="1">
          <mxGeometry width="50" height="50" relative="1" as="geometry">
            <mxPoint x="660" y="139.75" as="sourcePoint" />
            <mxPoint x="700" y="139.75" as="targetPoint" />
          </mxGeometry>
        </mxCell>
        <mxCell id="WGFTEza84kzCz2_i6lYA-56" value="COST = 20" style="text;html=1;strokeColor=none;fillColor=none;align=center;verticalAlign=middle;whiteSpace=wrap;rounded=0;" parent="1" vertex="1">
          <mxGeometry x="520" y="210" width="80" height="20" as="geometry" />
        </mxCell>
        <mxCell id="WGFTEza84kzCz2_i6lYA-57" value="COST = 1" style="text;html=1;strokeColor=none;fillColor=none;align=center;verticalAlign=middle;whiteSpace=wrap;rounded=0;" parent="1" vertex="1">
          <mxGeometry x="640" y="210" width="80" height="20" as="geometry" />
        </mxCell>
        <mxCell id="WGFTEza84kzCz2_i6lYA-58" value="" style="shape=link;html=1;entryX=1;entryY=0.75;entryDx=0;entryDy=0;strokeColor=#000000;edgeStyle=orthogonalEdgeStyle;width=7;fillColor=#fff2cc;dashed=1;" parent="1" target="WGFTEza84kzCz2_i6lYA-17" edge="1">
          <mxGeometry width="50" height="50" relative="1" as="geometry">
            <mxPoint x="210" y="320" as="sourcePoint" />
            <mxPoint x="420" y="260" as="targetPoint" />
            <Array as="points">
              <mxPoint x="210" y="320" />
              <mxPoint x="210" y="230" />
            </Array>
          </mxGeometry>
        </mxCell>
        <mxCell id="WGFTEza84kzCz2_i6lYA-60" value="" style="shape=link;html=1;strokeColor=#97D077;exitX=0.75;exitY=1;exitDx=0;exitDy=0;entryX=1;entryY=0.25;entryDx=0;entryDy=0;edgeStyle=orthogonalEdgeStyle;width=3;" parent="1" source="WGFTEza84kzCz2_i6lYA-33" target="WGFTEza84kzCz2_i6lYA-17" edge="1">
          <mxGeometry width="50" height="50" relative="1" as="geometry">
            <mxPoint x="370" y="310" as="sourcePoint" />
            <mxPoint x="420" y="260" as="targetPoint" />
            <Array as="points">
              <mxPoint x="230" y="140" />
              <mxPoint x="340" y="140" />
              <mxPoint x="340" y="210" />
            </Array>
          </mxGeometry>
        </mxCell>
        <mxCell id="1Cbv8PrEBrAD8Xqsl_fS-5" value="" style="edgeStyle=orthogonalEdgeStyle;rounded=0;orthogonalLoop=1;jettySize=auto;html=1;entryX=0;entryY=0.5;entryDx=0;entryDy=0;" edge="1" parent="1" source="1Cbv8PrEBrAD8Xqsl_fS-1" target="1Cbv8PrEBrAD8Xqsl_fS-2">
          <mxGeometry relative="1" as="geometry">
            <mxPoint x="260" y="480" as="targetPoint" />
          </mxGeometry>
        </mxCell>
        <mxCell id="1Cbv8PrEBrAD8Xqsl_fS-7" value="PastCost(S)" style="text;html=1;align=center;verticalAlign=middle;resizable=0;points=[];" vertex="1" connectable="0" parent="1Cbv8PrEBrAD8Xqsl_fS-5">
          <mxGeometry x="-0.1792" y="-1" relative="1" as="geometry">
            <mxPoint x="16" y="-11" as="offset" />
          </mxGeometry>
        </mxCell>
        <mxCell id="1Cbv8PrEBrAD8Xqsl_fS-1" value="$$S_I$$" style="ellipse;whiteSpace=wrap;html=1;aspect=fixed;" vertex="1" parent="1">
          <mxGeometry x="140" y="460" width="40" height="40" as="geometry" />
        </mxCell>
        <mxCell id="1Cbv8PrEBrAD8Xqsl_fS-6" style="edgeStyle=orthogonalEdgeStyle;rounded=0;orthogonalLoop=1;jettySize=auto;html=1;entryX=0;entryY=0.5;entryDx=0;entryDy=0;" edge="1" parent="1" source="1Cbv8PrEBrAD8Xqsl_fS-2" target="1Cbv8PrEBrAD8Xqsl_fS-3">
          <mxGeometry relative="1" as="geometry" />
        </mxCell>
        <mxCell id="1Cbv8PrEBrAD8Xqsl_fS-8" value="FutureCost(S)" style="text;html=1;align=center;verticalAlign=middle;resizable=0;points=[];" vertex="1" connectable="0" parent="1Cbv8PrEBrAD8Xqsl_fS-6">
          <mxGeometry x="-0.2" y="1" relative="1" as="geometry">
            <mxPoint x="24" y="-9" as="offset" />
          </mxGeometry>
        </mxCell>
        <mxCell id="1Cbv8PrEBrAD8Xqsl_fS-2" value="$$S$$" style="ellipse;whiteSpace=wrap;html=1;aspect=fixed;" vertex="1" parent="1">
          <mxGeometry x="340" y="460" width="40" height="40" as="geometry" />
        </mxCell>
        <mxCell id="1Cbv8PrEBrAD8Xqsl_fS-3" value="$$S_G$$" style="ellipse;whiteSpace=wrap;html=1;aspect=fixed;" vertex="1" parent="1">
          <mxGeometry x="620" y="460" width="40" height="40" as="geometry" />
        </mxCell>
      </root>
    </mxGraphModel>
  </diagram>
  <diagram id="B0csN4MV7XZGGIxpWnN4" name="small-world">
    <mxGraphModel dx="1026" dy="526" grid="1" gridSize="10" guides="1" tooltips="1" connect="1" arrows="1" fold="1" page="1" pageScale="1" pageWidth="850" pageHeight="1100" math="0" shadow="0">
      <root>
        <mxCell id="GhC_Zz8aewY0h3e85FsZ-0" />
        <mxCell id="GhC_Zz8aewY0h3e85FsZ-1" parent="GhC_Zz8aewY0h3e85FsZ-0" />
        <mxCell id="ZK-D7Gfjk_ylwY2FKUO1-1" value="" style="whiteSpace=wrap;html=1;aspect=fixed;" parent="GhC_Zz8aewY0h3e85FsZ-1" vertex="1">
          <mxGeometry x="120" y="120" width="40" height="40" as="geometry" />
        </mxCell>
        <mxCell id="ZK-D7Gfjk_ylwY2FKUO1-2" value="" style="whiteSpace=wrap;html=1;aspect=fixed;" parent="GhC_Zz8aewY0h3e85FsZ-1" vertex="1">
          <mxGeometry x="200" y="120" width="40" height="40" as="geometry" />
        </mxCell>
        <mxCell id="ZK-D7Gfjk_ylwY2FKUO1-3" value="" style="whiteSpace=wrap;html=1;aspect=fixed;" parent="GhC_Zz8aewY0h3e85FsZ-1" vertex="1">
          <mxGeometry x="240" y="120" width="40" height="40" as="geometry" />
        </mxCell>
        <mxCell id="ZK-D7Gfjk_ylwY2FKUO1-4" value="" style="whiteSpace=wrap;html=1;aspect=fixed;fillColor=#eeeeee;strokeColor=#36393d;" parent="GhC_Zz8aewY0h3e85FsZ-1" vertex="1">
          <mxGeometry x="160" y="120" width="40" height="40" as="geometry" />
        </mxCell>
        <mxCell id="ZK-D7Gfjk_ylwY2FKUO1-5" value="" style="whiteSpace=wrap;html=1;aspect=fixed;" parent="GhC_Zz8aewY0h3e85FsZ-1" vertex="1">
          <mxGeometry x="280" y="120" width="40" height="40" as="geometry" />
        </mxCell>
        <mxCell id="ZK-D7Gfjk_ylwY2FKUO1-7" value="" style="whiteSpace=wrap;html=1;aspect=fixed;" parent="GhC_Zz8aewY0h3e85FsZ-1" vertex="1">
          <mxGeometry x="80" y="160" width="40" height="40" as="geometry" />
        </mxCell>
        <mxCell id="ZK-D7Gfjk_ylwY2FKUO1-8" value="" style="whiteSpace=wrap;html=1;aspect=fixed;" parent="GhC_Zz8aewY0h3e85FsZ-1" vertex="1">
          <mxGeometry x="120" y="160" width="40" height="40" as="geometry" />
        </mxCell>
        <mxCell id="ZK-D7Gfjk_ylwY2FKUO1-9" value="" style="whiteSpace=wrap;html=1;aspect=fixed;" parent="GhC_Zz8aewY0h3e85FsZ-1" vertex="1">
          <mxGeometry x="200" y="160" width="40" height="40" as="geometry" />
        </mxCell>
        <mxCell id="ZK-D7Gfjk_ylwY2FKUO1-10" value="" style="whiteSpace=wrap;html=1;aspect=fixed;" parent="GhC_Zz8aewY0h3e85FsZ-1" vertex="1">
          <mxGeometry x="240" y="160" width="40" height="40" as="geometry" />
        </mxCell>
        <mxCell id="ZK-D7Gfjk_ylwY2FKUO1-11" value="" style="whiteSpace=wrap;html=1;aspect=fixed;fillColor=#eeeeee;strokeColor=#36393d;" parent="GhC_Zz8aewY0h3e85FsZ-1" vertex="1">
          <mxGeometry x="160" y="160" width="40" height="40" as="geometry" />
        </mxCell>
        <mxCell id="ZK-D7Gfjk_ylwY2FKUO1-12" value="" style="whiteSpace=wrap;html=1;aspect=fixed;" parent="GhC_Zz8aewY0h3e85FsZ-1" vertex="1">
          <mxGeometry x="280" y="160" width="40" height="40" as="geometry" />
        </mxCell>
        <mxCell id="ZK-D7Gfjk_ylwY2FKUO1-14" value="G" style="whiteSpace=wrap;html=1;aspect=fixed;fillColor=#f8cecc;strokeColor=#b85450;" parent="GhC_Zz8aewY0h3e85FsZ-1" vertex="1">
          <mxGeometry x="280" y="280" width="40" height="40" as="geometry" />
        </mxCell>
        <mxCell id="ZK-D7Gfjk_ylwY2FKUO1-15" value="" style="whiteSpace=wrap;html=1;aspect=fixed;" parent="GhC_Zz8aewY0h3e85FsZ-1" vertex="1">
          <mxGeometry x="120" y="200" width="40" height="40" as="geometry" />
        </mxCell>
        <mxCell id="ZK-D7Gfjk_ylwY2FKUO1-16" value="" style="whiteSpace=wrap;html=1;aspect=fixed;" parent="GhC_Zz8aewY0h3e85FsZ-1" vertex="1">
          <mxGeometry x="200" y="200" width="40" height="40" as="geometry" />
        </mxCell>
        <mxCell id="ZK-D7Gfjk_ylwY2FKUO1-17" value="" style="whiteSpace=wrap;html=1;aspect=fixed;fillColor=#eeeeee;strokeColor=#36393d;" parent="GhC_Zz8aewY0h3e85FsZ-1" vertex="1">
          <mxGeometry x="240" y="200" width="40" height="40" as="geometry" />
        </mxCell>
        <mxCell id="ZK-D7Gfjk_ylwY2FKUO1-18" value="" style="whiteSpace=wrap;html=1;aspect=fixed;" parent="GhC_Zz8aewY0h3e85FsZ-1" vertex="1">
          <mxGeometry x="160" y="200" width="40" height="40" as="geometry" />
        </mxCell>
        <mxCell id="ZK-D7Gfjk_ylwY2FKUO1-19" value="" style="whiteSpace=wrap;html=1;aspect=fixed;" parent="GhC_Zz8aewY0h3e85FsZ-1" vertex="1">
          <mxGeometry x="280" y="200" width="40" height="40" as="geometry" />
        </mxCell>
        <mxCell id="ZK-D7Gfjk_ylwY2FKUO1-21" value="" style="whiteSpace=wrap;html=1;aspect=fixed;fillColor=#dae8fc;strokeColor=#6c8ebf;" parent="GhC_Zz8aewY0h3e85FsZ-1" vertex="1">
          <mxGeometry x="80" y="240" width="40" height="40" as="geometry" />
        </mxCell>
        <mxCell id="ZK-D7Gfjk_ylwY2FKUO1-22" value="" style="whiteSpace=wrap;html=1;aspect=fixed;" parent="GhC_Zz8aewY0h3e85FsZ-1" vertex="1">
          <mxGeometry x="120" y="240" width="40" height="40" as="geometry" />
        </mxCell>
        <mxCell id="ZK-D7Gfjk_ylwY2FKUO1-23" value="" style="whiteSpace=wrap;html=1;aspect=fixed;fillColor=#eeeeee;strokeColor=#36393d;" parent="GhC_Zz8aewY0h3e85FsZ-1" vertex="1">
          <mxGeometry x="200" y="240" width="40" height="40" as="geometry" />
        </mxCell>
        <mxCell id="ZK-D7Gfjk_ylwY2FKUO1-24" value="" style="whiteSpace=wrap;html=1;aspect=fixed;fillColor=#eeeeee;strokeColor=#36393d;" parent="GhC_Zz8aewY0h3e85FsZ-1" vertex="1">
          <mxGeometry x="240" y="240" width="40" height="40" as="geometry" />
        </mxCell>
        <mxCell id="ZK-D7Gfjk_ylwY2FKUO1-25" value="" style="whiteSpace=wrap;html=1;aspect=fixed;fillColor=#eeeeee;strokeColor=#36393d;" parent="GhC_Zz8aewY0h3e85FsZ-1" vertex="1">
          <mxGeometry x="160" y="240" width="40" height="40" as="geometry" />
        </mxCell>
        <mxCell id="ZK-D7Gfjk_ylwY2FKUO1-26" value="" style="whiteSpace=wrap;html=1;aspect=fixed;" parent="GhC_Zz8aewY0h3e85FsZ-1" vertex="1">
          <mxGeometry x="280" y="240" width="40" height="40" as="geometry" />
        </mxCell>
        <mxCell id="ZK-D7Gfjk_ylwY2FKUO1-28" value="" style="whiteSpace=wrap;html=1;aspect=fixed;" parent="GhC_Zz8aewY0h3e85FsZ-1" vertex="1">
          <mxGeometry x="80" y="280" width="40" height="40" as="geometry" />
        </mxCell>
        <mxCell id="ZK-D7Gfjk_ylwY2FKUO1-29" value="" style="whiteSpace=wrap;html=1;aspect=fixed;" parent="GhC_Zz8aewY0h3e85FsZ-1" vertex="1">
          <mxGeometry x="120" y="280" width="40" height="40" as="geometry" />
        </mxCell>
        <mxCell id="ZK-D7Gfjk_ylwY2FKUO1-30" value="" style="whiteSpace=wrap;html=1;aspect=fixed;" parent="GhC_Zz8aewY0h3e85FsZ-1" vertex="1">
          <mxGeometry x="200" y="280" width="40" height="40" as="geometry" />
        </mxCell>
        <mxCell id="ZK-D7Gfjk_ylwY2FKUO1-31" value="" style="whiteSpace=wrap;html=1;aspect=fixed;fillColor=#eeeeee;strokeColor=#36393d;" parent="GhC_Zz8aewY0h3e85FsZ-1" vertex="1">
          <mxGeometry x="240" y="280" width="40" height="40" as="geometry" />
        </mxCell>
        <mxCell id="ZK-D7Gfjk_ylwY2FKUO1-32" value="" style="whiteSpace=wrap;html=1;aspect=fixed;" parent="GhC_Zz8aewY0h3e85FsZ-1" vertex="1">
          <mxGeometry x="160" y="280" width="40" height="40" as="geometry" />
        </mxCell>
        <mxCell id="ZK-D7Gfjk_ylwY2FKUO1-33" value="" style="whiteSpace=wrap;html=1;aspect=fixed;" parent="GhC_Zz8aewY0h3e85FsZ-1" vertex="1">
          <mxGeometry x="80" y="200" width="40" height="40" as="geometry" />
        </mxCell>
        <mxCell id="ZK-D7Gfjk_ylwY2FKUO1-37" value="S" style="whiteSpace=wrap;html=1;aspect=fixed;fillColor=#d5e8d4;strokeColor=#82b366;" parent="GhC_Zz8aewY0h3e85FsZ-1" vertex="1">
          <mxGeometry x="80" y="120" width="40" height="40" as="geometry" />
        </mxCell>
        <mxCell id="ZK-D7Gfjk_ylwY2FKUO1-44" value="" style="whiteSpace=wrap;html=1;aspect=fixed;" parent="GhC_Zz8aewY0h3e85FsZ-1" vertex="1">
          <mxGeometry x="80" y="240" width="40" height="40" as="geometry" />
        </mxCell>
        <mxCell id="ZK-D7Gfjk_ylwY2FKUO1-45" value="" style="whiteSpace=wrap;html=1;aspect=fixed;" parent="GhC_Zz8aewY0h3e85FsZ-1" vertex="1">
          <mxGeometry x="440" y="120" width="40" height="40" as="geometry" />
        </mxCell>
        <mxCell id="ZK-D7Gfjk_ylwY2FKUO1-46" value="" style="whiteSpace=wrap;html=1;aspect=fixed;" parent="GhC_Zz8aewY0h3e85FsZ-1" vertex="1">
          <mxGeometry x="520" y="120" width="40" height="40" as="geometry" />
        </mxCell>
        <mxCell id="ZK-D7Gfjk_ylwY2FKUO1-47" value="" style="whiteSpace=wrap;html=1;aspect=fixed;" parent="GhC_Zz8aewY0h3e85FsZ-1" vertex="1">
          <mxGeometry x="560" y="120" width="40" height="40" as="geometry" />
        </mxCell>
        <mxCell id="ZK-D7Gfjk_ylwY2FKUO1-48" value="" style="whiteSpace=wrap;html=1;aspect=fixed;fillColor=#eeeeee;strokeColor=#36393d;" parent="GhC_Zz8aewY0h3e85FsZ-1" vertex="1">
          <mxGeometry x="480" y="120" width="40" height="40" as="geometry" />
        </mxCell>
        <mxCell id="ZK-D7Gfjk_ylwY2FKUO1-49" value="" style="whiteSpace=wrap;html=1;aspect=fixed;" parent="GhC_Zz8aewY0h3e85FsZ-1" vertex="1">
          <mxGeometry x="600" y="120" width="40" height="40" as="geometry" />
        </mxCell>
        <mxCell id="ZK-D7Gfjk_ylwY2FKUO1-50" value="" style="whiteSpace=wrap;html=1;aspect=fixed;" parent="GhC_Zz8aewY0h3e85FsZ-1" vertex="1">
          <mxGeometry x="400" y="160" width="40" height="40" as="geometry" />
        </mxCell>
        <mxCell id="ZK-D7Gfjk_ylwY2FKUO1-51" value="" style="whiteSpace=wrap;html=1;aspect=fixed;" parent="GhC_Zz8aewY0h3e85FsZ-1" vertex="1">
          <mxGeometry x="440" y="160" width="40" height="40" as="geometry" />
        </mxCell>
        <mxCell id="ZK-D7Gfjk_ylwY2FKUO1-52" value="" style="whiteSpace=wrap;html=1;aspect=fixed;" parent="GhC_Zz8aewY0h3e85FsZ-1" vertex="1">
          <mxGeometry x="520" y="160" width="40" height="40" as="geometry" />
        </mxCell>
        <mxCell id="ZK-D7Gfjk_ylwY2FKUO1-53" value="" style="whiteSpace=wrap;html=1;aspect=fixed;" parent="GhC_Zz8aewY0h3e85FsZ-1" vertex="1">
          <mxGeometry x="560" y="160" width="40" height="40" as="geometry" />
        </mxCell>
        <mxCell id="ZK-D7Gfjk_ylwY2FKUO1-54" value="" style="whiteSpace=wrap;html=1;aspect=fixed;fillColor=#eeeeee;strokeColor=#36393d;" parent="GhC_Zz8aewY0h3e85FsZ-1" vertex="1">
          <mxGeometry x="480" y="160" width="40" height="40" as="geometry" />
        </mxCell>
        <mxCell id="ZK-D7Gfjk_ylwY2FKUO1-55" value="" style="whiteSpace=wrap;html=1;aspect=fixed;" parent="GhC_Zz8aewY0h3e85FsZ-1" vertex="1">
          <mxGeometry x="600" y="160" width="40" height="40" as="geometry" />
        </mxCell>
        <mxCell id="ZK-D7Gfjk_ylwY2FKUO1-56" value="G" style="whiteSpace=wrap;html=1;aspect=fixed;fillColor=#f8cecc;strokeColor=#b85450;" parent="GhC_Zz8aewY0h3e85FsZ-1" vertex="1">
          <mxGeometry x="600" y="280" width="40" height="40" as="geometry" />
        </mxCell>
        <mxCell id="ZK-D7Gfjk_ylwY2FKUO1-57" value="" style="whiteSpace=wrap;html=1;aspect=fixed;" parent="GhC_Zz8aewY0h3e85FsZ-1" vertex="1">
          <mxGeometry x="440" y="200" width="40" height="40" as="geometry" />
        </mxCell>
        <mxCell id="ZK-D7Gfjk_ylwY2FKUO1-58" value="" style="whiteSpace=wrap;html=1;aspect=fixed;" parent="GhC_Zz8aewY0h3e85FsZ-1" vertex="1">
          <mxGeometry x="520" y="200" width="40" height="40" as="geometry" />
        </mxCell>
        <mxCell id="ZK-D7Gfjk_ylwY2FKUO1-59" value="" style="whiteSpace=wrap;html=1;aspect=fixed;fillColor=#eeeeee;strokeColor=#36393d;" parent="GhC_Zz8aewY0h3e85FsZ-1" vertex="1">
          <mxGeometry x="560" y="200" width="40" height="40" as="geometry" />
        </mxCell>
        <mxCell id="ZK-D7Gfjk_ylwY2FKUO1-60" value="" style="whiteSpace=wrap;html=1;aspect=fixed;" parent="GhC_Zz8aewY0h3e85FsZ-1" vertex="1">
          <mxGeometry x="480" y="200" width="40" height="40" as="geometry" />
        </mxCell>
        <mxCell id="ZK-D7Gfjk_ylwY2FKUO1-61" value="" style="whiteSpace=wrap;html=1;aspect=fixed;" parent="GhC_Zz8aewY0h3e85FsZ-1" vertex="1">
          <mxGeometry x="600" y="200" width="40" height="40" as="geometry" />
        </mxCell>
        <mxCell id="ZK-D7Gfjk_ylwY2FKUO1-62" value="" style="whiteSpace=wrap;html=1;aspect=fixed;fillColor=#dae8fc;strokeColor=#6c8ebf;" parent="GhC_Zz8aewY0h3e85FsZ-1" vertex="1">
          <mxGeometry x="400" y="240" width="40" height="40" as="geometry" />
        </mxCell>
        <mxCell id="ZK-D7Gfjk_ylwY2FKUO1-63" value="" style="whiteSpace=wrap;html=1;aspect=fixed;" parent="GhC_Zz8aewY0h3e85FsZ-1" vertex="1">
          <mxGeometry x="440" y="240" width="40" height="40" as="geometry" />
        </mxCell>
        <mxCell id="ZK-D7Gfjk_ylwY2FKUO1-64" value="" style="whiteSpace=wrap;html=1;aspect=fixed;fillColor=#eeeeee;strokeColor=#36393d;" parent="GhC_Zz8aewY0h3e85FsZ-1" vertex="1">
          <mxGeometry x="520" y="240" width="40" height="40" as="geometry" />
        </mxCell>
        <mxCell id="ZK-D7Gfjk_ylwY2FKUO1-65" value="" style="whiteSpace=wrap;html=1;aspect=fixed;fillColor=#eeeeee;strokeColor=#36393d;" parent="GhC_Zz8aewY0h3e85FsZ-1" vertex="1">
          <mxGeometry x="560" y="240" width="40" height="40" as="geometry" />
        </mxCell>
        <mxCell id="ZK-D7Gfjk_ylwY2FKUO1-66" value="" style="whiteSpace=wrap;html=1;aspect=fixed;fillColor=#eeeeee;strokeColor=#36393d;" parent="GhC_Zz8aewY0h3e85FsZ-1" vertex="1">
          <mxGeometry x="480" y="240" width="40" height="40" as="geometry" />
        </mxCell>
        <mxCell id="ZK-D7Gfjk_ylwY2FKUO1-67" value="" style="whiteSpace=wrap;html=1;aspect=fixed;" parent="GhC_Zz8aewY0h3e85FsZ-1" vertex="1">
          <mxGeometry x="600" y="240" width="40" height="40" as="geometry" />
        </mxCell>
        <mxCell id="ZK-D7Gfjk_ylwY2FKUO1-68" value="" style="whiteSpace=wrap;html=1;aspect=fixed;" parent="GhC_Zz8aewY0h3e85FsZ-1" vertex="1">
          <mxGeometry x="400" y="280" width="40" height="40" as="geometry" />
        </mxCell>
        <mxCell id="ZK-D7Gfjk_ylwY2FKUO1-69" value="" style="whiteSpace=wrap;html=1;aspect=fixed;" parent="GhC_Zz8aewY0h3e85FsZ-1" vertex="1">
          <mxGeometry x="440" y="280" width="40" height="40" as="geometry" />
        </mxCell>
        <mxCell id="ZK-D7Gfjk_ylwY2FKUO1-70" value="" style="whiteSpace=wrap;html=1;aspect=fixed;" parent="GhC_Zz8aewY0h3e85FsZ-1" vertex="1">
          <mxGeometry x="520" y="280" width="40" height="40" as="geometry" />
        </mxCell>
        <mxCell id="ZK-D7Gfjk_ylwY2FKUO1-71" value="" style="whiteSpace=wrap;html=1;aspect=fixed;fillColor=#eeeeee;strokeColor=#36393d;" parent="GhC_Zz8aewY0h3e85FsZ-1" vertex="1">
          <mxGeometry x="560" y="280" width="40" height="40" as="geometry" />
        </mxCell>
        <mxCell id="ZK-D7Gfjk_ylwY2FKUO1-72" value="" style="whiteSpace=wrap;html=1;aspect=fixed;" parent="GhC_Zz8aewY0h3e85FsZ-1" vertex="1">
          <mxGeometry x="480" y="280" width="40" height="40" as="geometry" />
        </mxCell>
        <mxCell id="ZK-D7Gfjk_ylwY2FKUO1-73" value="" style="whiteSpace=wrap;html=1;aspect=fixed;" parent="GhC_Zz8aewY0h3e85FsZ-1" vertex="1">
          <mxGeometry x="400" y="200" width="40" height="40" as="geometry" />
        </mxCell>
        <mxCell id="ZK-D7Gfjk_ylwY2FKUO1-74" value="S" style="whiteSpace=wrap;html=1;aspect=fixed;fillColor=#d5e8d4;strokeColor=#82b366;" parent="GhC_Zz8aewY0h3e85FsZ-1" vertex="1">
          <mxGeometry x="400" y="120" width="40" height="40" as="geometry" />
        </mxCell>
        <mxCell id="ZK-D7Gfjk_ylwY2FKUO1-75" value="" style="whiteSpace=wrap;html=1;aspect=fixed;" parent="GhC_Zz8aewY0h3e85FsZ-1" vertex="1">
          <mxGeometry x="400" y="240" width="40" height="40" as="geometry" />
        </mxCell>
        <mxCell id="ZK-D7Gfjk_ylwY2FKUO1-76" value="" style="whiteSpace=wrap;html=1;aspect=fixed;" parent="GhC_Zz8aewY0h3e85FsZ-1" vertex="1">
          <mxGeometry x="120" y="360" width="40" height="40" as="geometry" />
        </mxCell>
        <mxCell id="ZK-D7Gfjk_ylwY2FKUO1-77" value="" style="whiteSpace=wrap;html=1;aspect=fixed;" parent="GhC_Zz8aewY0h3e85FsZ-1" vertex="1">
          <mxGeometry x="200" y="360" width="40" height="40" as="geometry" />
        </mxCell>
        <mxCell id="ZK-D7Gfjk_ylwY2FKUO1-78" value="" style="whiteSpace=wrap;html=1;aspect=fixed;" parent="GhC_Zz8aewY0h3e85FsZ-1" vertex="1">
          <mxGeometry x="240" y="360" width="40" height="40" as="geometry" />
        </mxCell>
        <mxCell id="ZK-D7Gfjk_ylwY2FKUO1-79" value="" style="whiteSpace=wrap;html=1;aspect=fixed;fillColor=#eeeeee;strokeColor=#36393d;" parent="GhC_Zz8aewY0h3e85FsZ-1" vertex="1">
          <mxGeometry x="160" y="360" width="40" height="40" as="geometry" />
        </mxCell>
        <mxCell id="ZK-D7Gfjk_ylwY2FKUO1-80" value="" style="whiteSpace=wrap;html=1;aspect=fixed;" parent="GhC_Zz8aewY0h3e85FsZ-1" vertex="1">
          <mxGeometry x="280" y="360" width="40" height="40" as="geometry" />
        </mxCell>
        <mxCell id="ZK-D7Gfjk_ylwY2FKUO1-81" value="" style="whiteSpace=wrap;html=1;aspect=fixed;" parent="GhC_Zz8aewY0h3e85FsZ-1" vertex="1">
          <mxGeometry x="80" y="400" width="40" height="40" as="geometry" />
        </mxCell>
        <mxCell id="ZK-D7Gfjk_ylwY2FKUO1-82" value="" style="whiteSpace=wrap;html=1;aspect=fixed;" parent="GhC_Zz8aewY0h3e85FsZ-1" vertex="1">
          <mxGeometry x="120" y="400" width="40" height="40" as="geometry" />
        </mxCell>
        <mxCell id="ZK-D7Gfjk_ylwY2FKUO1-83" value="" style="whiteSpace=wrap;html=1;aspect=fixed;" parent="GhC_Zz8aewY0h3e85FsZ-1" vertex="1">
          <mxGeometry x="200" y="400" width="40" height="40" as="geometry" />
        </mxCell>
        <mxCell id="ZK-D7Gfjk_ylwY2FKUO1-84" value="" style="whiteSpace=wrap;html=1;aspect=fixed;" parent="GhC_Zz8aewY0h3e85FsZ-1" vertex="1">
          <mxGeometry x="240" y="400" width="40" height="40" as="geometry" />
        </mxCell>
        <mxCell id="ZK-D7Gfjk_ylwY2FKUO1-85" value="" style="whiteSpace=wrap;html=1;aspect=fixed;fillColor=#eeeeee;strokeColor=#36393d;" parent="GhC_Zz8aewY0h3e85FsZ-1" vertex="1">
          <mxGeometry x="160" y="400" width="40" height="40" as="geometry" />
        </mxCell>
        <mxCell id="ZK-D7Gfjk_ylwY2FKUO1-86" value="" style="whiteSpace=wrap;html=1;aspect=fixed;" parent="GhC_Zz8aewY0h3e85FsZ-1" vertex="1">
          <mxGeometry x="280" y="400" width="40" height="40" as="geometry" />
        </mxCell>
        <mxCell id="ZK-D7Gfjk_ylwY2FKUO1-87" value="G" style="whiteSpace=wrap;html=1;aspect=fixed;fillColor=#f8cecc;strokeColor=#b85450;" parent="GhC_Zz8aewY0h3e85FsZ-1" vertex="1">
          <mxGeometry x="280" y="520" width="40" height="40" as="geometry" />
        </mxCell>
        <mxCell id="ZK-D7Gfjk_ylwY2FKUO1-88" value="" style="whiteSpace=wrap;html=1;aspect=fixed;" parent="GhC_Zz8aewY0h3e85FsZ-1" vertex="1">
          <mxGeometry x="120" y="440" width="40" height="40" as="geometry" />
        </mxCell>
        <mxCell id="ZK-D7Gfjk_ylwY2FKUO1-89" value="" style="whiteSpace=wrap;html=1;aspect=fixed;" parent="GhC_Zz8aewY0h3e85FsZ-1" vertex="1">
          <mxGeometry x="200" y="440" width="40" height="40" as="geometry" />
        </mxCell>
        <mxCell id="ZK-D7Gfjk_ylwY2FKUO1-90" value="" style="whiteSpace=wrap;html=1;aspect=fixed;fillColor=#eeeeee;strokeColor=#36393d;" parent="GhC_Zz8aewY0h3e85FsZ-1" vertex="1">
          <mxGeometry x="240" y="440" width="40" height="40" as="geometry" />
        </mxCell>
        <mxCell id="ZK-D7Gfjk_ylwY2FKUO1-91" value="" style="whiteSpace=wrap;html=1;aspect=fixed;" parent="GhC_Zz8aewY0h3e85FsZ-1" vertex="1">
          <mxGeometry x="160" y="440" width="40" height="40" as="geometry" />
        </mxCell>
        <mxCell id="ZK-D7Gfjk_ylwY2FKUO1-92" value="" style="whiteSpace=wrap;html=1;aspect=fixed;" parent="GhC_Zz8aewY0h3e85FsZ-1" vertex="1">
          <mxGeometry x="280" y="440" width="40" height="40" as="geometry" />
        </mxCell>
        <mxCell id="ZK-D7Gfjk_ylwY2FKUO1-93" value="" style="whiteSpace=wrap;html=1;aspect=fixed;fillColor=#dae8fc;strokeColor=#6c8ebf;" parent="GhC_Zz8aewY0h3e85FsZ-1" vertex="1">
          <mxGeometry x="80" y="480" width="40" height="40" as="geometry" />
        </mxCell>
        <mxCell id="ZK-D7Gfjk_ylwY2FKUO1-94" value="" style="whiteSpace=wrap;html=1;aspect=fixed;" parent="GhC_Zz8aewY0h3e85FsZ-1" vertex="1">
          <mxGeometry x="120" y="480" width="40" height="40" as="geometry" />
        </mxCell>
        <mxCell id="ZK-D7Gfjk_ylwY2FKUO1-95" value="" style="whiteSpace=wrap;html=1;aspect=fixed;fillColor=#eeeeee;strokeColor=#36393d;" parent="GhC_Zz8aewY0h3e85FsZ-1" vertex="1">
          <mxGeometry x="200" y="480" width="40" height="40" as="geometry" />
        </mxCell>
        <mxCell id="ZK-D7Gfjk_ylwY2FKUO1-96" value="" style="whiteSpace=wrap;html=1;aspect=fixed;fillColor=#eeeeee;strokeColor=#36393d;" parent="GhC_Zz8aewY0h3e85FsZ-1" vertex="1">
          <mxGeometry x="240" y="480" width="40" height="40" as="geometry" />
        </mxCell>
        <mxCell id="ZK-D7Gfjk_ylwY2FKUO1-97" value="" style="whiteSpace=wrap;html=1;aspect=fixed;fillColor=#eeeeee;strokeColor=#36393d;" parent="GhC_Zz8aewY0h3e85FsZ-1" vertex="1">
          <mxGeometry x="160" y="480" width="40" height="40" as="geometry" />
        </mxCell>
        <mxCell id="ZK-D7Gfjk_ylwY2FKUO1-98" value="" style="whiteSpace=wrap;html=1;aspect=fixed;" parent="GhC_Zz8aewY0h3e85FsZ-1" vertex="1">
          <mxGeometry x="280" y="480" width="40" height="40" as="geometry" />
        </mxCell>
        <mxCell id="ZK-D7Gfjk_ylwY2FKUO1-99" value="" style="whiteSpace=wrap;html=1;aspect=fixed;" parent="GhC_Zz8aewY0h3e85FsZ-1" vertex="1">
          <mxGeometry x="80" y="520" width="40" height="40" as="geometry" />
        </mxCell>
        <mxCell id="ZK-D7Gfjk_ylwY2FKUO1-100" value="" style="whiteSpace=wrap;html=1;aspect=fixed;" parent="GhC_Zz8aewY0h3e85FsZ-1" vertex="1">
          <mxGeometry x="120" y="520" width="40" height="40" as="geometry" />
        </mxCell>
        <mxCell id="ZK-D7Gfjk_ylwY2FKUO1-101" value="" style="whiteSpace=wrap;html=1;aspect=fixed;" parent="GhC_Zz8aewY0h3e85FsZ-1" vertex="1">
          <mxGeometry x="200" y="520" width="40" height="40" as="geometry" />
        </mxCell>
        <mxCell id="ZK-D7Gfjk_ylwY2FKUO1-102" value="" style="whiteSpace=wrap;html=1;aspect=fixed;fillColor=#eeeeee;strokeColor=#36393d;" parent="GhC_Zz8aewY0h3e85FsZ-1" vertex="1">
          <mxGeometry x="240" y="520" width="40" height="40" as="geometry" />
        </mxCell>
        <mxCell id="ZK-D7Gfjk_ylwY2FKUO1-103" value="" style="whiteSpace=wrap;html=1;aspect=fixed;" parent="GhC_Zz8aewY0h3e85FsZ-1" vertex="1">
          <mxGeometry x="160" y="520" width="40" height="40" as="geometry" />
        </mxCell>
        <mxCell id="ZK-D7Gfjk_ylwY2FKUO1-104" value="" style="whiteSpace=wrap;html=1;aspect=fixed;" parent="GhC_Zz8aewY0h3e85FsZ-1" vertex="1">
          <mxGeometry x="80" y="440" width="40" height="40" as="geometry" />
        </mxCell>
        <mxCell id="ZK-D7Gfjk_ylwY2FKUO1-105" value="S" style="whiteSpace=wrap;html=1;aspect=fixed;fillColor=#d5e8d4;strokeColor=#82b366;" parent="GhC_Zz8aewY0h3e85FsZ-1" vertex="1">
          <mxGeometry x="80" y="360" width="40" height="40" as="geometry" />
        </mxCell>
        <mxCell id="ZK-D7Gfjk_ylwY2FKUO1-106" value="" style="whiteSpace=wrap;html=1;aspect=fixed;" parent="GhC_Zz8aewY0h3e85FsZ-1" vertex="1">
          <mxGeometry x="80" y="480" width="40" height="40" as="geometry" />
        </mxCell>
        <mxCell id="ZK-D7Gfjk_ylwY2FKUO1-107" value="" style="whiteSpace=wrap;html=1;aspect=fixed;" parent="GhC_Zz8aewY0h3e85FsZ-1" vertex="1">
          <mxGeometry x="440" y="360" width="40" height="40" as="geometry" />
        </mxCell>
        <mxCell id="ZK-D7Gfjk_ylwY2FKUO1-108" value="" style="whiteSpace=wrap;html=1;aspect=fixed;" parent="GhC_Zz8aewY0h3e85FsZ-1" vertex="1">
          <mxGeometry x="520" y="360" width="40" height="40" as="geometry" />
        </mxCell>
        <mxCell id="ZK-D7Gfjk_ylwY2FKUO1-109" value="" style="whiteSpace=wrap;html=1;aspect=fixed;" parent="GhC_Zz8aewY0h3e85FsZ-1" vertex="1">
          <mxGeometry x="560" y="360" width="40" height="40" as="geometry" />
        </mxCell>
        <mxCell id="ZK-D7Gfjk_ylwY2FKUO1-110" value="" style="whiteSpace=wrap;html=1;aspect=fixed;fillColor=#eeeeee;strokeColor=#36393d;" parent="GhC_Zz8aewY0h3e85FsZ-1" vertex="1">
          <mxGeometry x="480" y="360" width="40" height="40" as="geometry" />
        </mxCell>
        <mxCell id="ZK-D7Gfjk_ylwY2FKUO1-111" value="" style="whiteSpace=wrap;html=1;aspect=fixed;" parent="GhC_Zz8aewY0h3e85FsZ-1" vertex="1">
          <mxGeometry x="600" y="360" width="40" height="40" as="geometry" />
        </mxCell>
        <mxCell id="ZK-D7Gfjk_ylwY2FKUO1-112" value="" style="whiteSpace=wrap;html=1;aspect=fixed;" parent="GhC_Zz8aewY0h3e85FsZ-1" vertex="1">
          <mxGeometry x="400" y="400" width="40" height="40" as="geometry" />
        </mxCell>
        <mxCell id="ZK-D7Gfjk_ylwY2FKUO1-113" value="" style="whiteSpace=wrap;html=1;aspect=fixed;" parent="GhC_Zz8aewY0h3e85FsZ-1" vertex="1">
          <mxGeometry x="440" y="400" width="40" height="40" as="geometry" />
        </mxCell>
        <mxCell id="ZK-D7Gfjk_ylwY2FKUO1-114" value="" style="whiteSpace=wrap;html=1;aspect=fixed;" parent="GhC_Zz8aewY0h3e85FsZ-1" vertex="1">
          <mxGeometry x="520" y="400" width="40" height="40" as="geometry" />
        </mxCell>
        <mxCell id="ZK-D7Gfjk_ylwY2FKUO1-115" value="" style="whiteSpace=wrap;html=1;aspect=fixed;" parent="GhC_Zz8aewY0h3e85FsZ-1" vertex="1">
          <mxGeometry x="560" y="400" width="40" height="40" as="geometry" />
        </mxCell>
        <mxCell id="ZK-D7Gfjk_ylwY2FKUO1-116" value="" style="whiteSpace=wrap;html=1;aspect=fixed;fillColor=#eeeeee;strokeColor=#36393d;" parent="GhC_Zz8aewY0h3e85FsZ-1" vertex="1">
          <mxGeometry x="480" y="400" width="40" height="40" as="geometry" />
        </mxCell>
        <mxCell id="ZK-D7Gfjk_ylwY2FKUO1-117" value="" style="whiteSpace=wrap;html=1;aspect=fixed;" parent="GhC_Zz8aewY0h3e85FsZ-1" vertex="1">
          <mxGeometry x="600" y="400" width="40" height="40" as="geometry" />
        </mxCell>
        <mxCell id="ZK-D7Gfjk_ylwY2FKUO1-118" value="G" style="whiteSpace=wrap;html=1;aspect=fixed;fillColor=#f8cecc;strokeColor=#b85450;" parent="GhC_Zz8aewY0h3e85FsZ-1" vertex="1">
          <mxGeometry x="600" y="520" width="40" height="40" as="geometry" />
        </mxCell>
        <mxCell id="ZK-D7Gfjk_ylwY2FKUO1-119" value="" style="whiteSpace=wrap;html=1;aspect=fixed;" parent="GhC_Zz8aewY0h3e85FsZ-1" vertex="1">
          <mxGeometry x="440" y="440" width="40" height="40" as="geometry" />
        </mxCell>
        <mxCell id="ZK-D7Gfjk_ylwY2FKUO1-120" value="" style="whiteSpace=wrap;html=1;aspect=fixed;" parent="GhC_Zz8aewY0h3e85FsZ-1" vertex="1">
          <mxGeometry x="520" y="440" width="40" height="40" as="geometry" />
        </mxCell>
        <mxCell id="ZK-D7Gfjk_ylwY2FKUO1-121" value="" style="whiteSpace=wrap;html=1;aspect=fixed;fillColor=#eeeeee;strokeColor=#36393d;" parent="GhC_Zz8aewY0h3e85FsZ-1" vertex="1">
          <mxGeometry x="560" y="440" width="40" height="40" as="geometry" />
        </mxCell>
        <mxCell id="ZK-D7Gfjk_ylwY2FKUO1-122" value="" style="whiteSpace=wrap;html=1;aspect=fixed;" parent="GhC_Zz8aewY0h3e85FsZ-1" vertex="1">
          <mxGeometry x="480" y="440" width="40" height="40" as="geometry" />
        </mxCell>
        <mxCell id="ZK-D7Gfjk_ylwY2FKUO1-123" value="" style="whiteSpace=wrap;html=1;aspect=fixed;" parent="GhC_Zz8aewY0h3e85FsZ-1" vertex="1">
          <mxGeometry x="600" y="440" width="40" height="40" as="geometry" />
        </mxCell>
        <mxCell id="ZK-D7Gfjk_ylwY2FKUO1-124" value="" style="whiteSpace=wrap;html=1;aspect=fixed;fillColor=#dae8fc;strokeColor=#6c8ebf;" parent="GhC_Zz8aewY0h3e85FsZ-1" vertex="1">
          <mxGeometry x="400" y="480" width="40" height="40" as="geometry" />
        </mxCell>
        <mxCell id="ZK-D7Gfjk_ylwY2FKUO1-125" value="" style="whiteSpace=wrap;html=1;aspect=fixed;" parent="GhC_Zz8aewY0h3e85FsZ-1" vertex="1">
          <mxGeometry x="440" y="480" width="40" height="40" as="geometry" />
        </mxCell>
        <mxCell id="ZK-D7Gfjk_ylwY2FKUO1-126" value="" style="whiteSpace=wrap;html=1;aspect=fixed;fillColor=#eeeeee;strokeColor=#36393d;" parent="GhC_Zz8aewY0h3e85FsZ-1" vertex="1">
          <mxGeometry x="520" y="480" width="40" height="40" as="geometry" />
        </mxCell>
        <mxCell id="ZK-D7Gfjk_ylwY2FKUO1-127" value="" style="whiteSpace=wrap;html=1;aspect=fixed;fillColor=#eeeeee;strokeColor=#36393d;" parent="GhC_Zz8aewY0h3e85FsZ-1" vertex="1">
          <mxGeometry x="560" y="480" width="40" height="40" as="geometry" />
        </mxCell>
        <mxCell id="ZK-D7Gfjk_ylwY2FKUO1-128" value="" style="whiteSpace=wrap;html=1;aspect=fixed;fillColor=#eeeeee;strokeColor=#36393d;" parent="GhC_Zz8aewY0h3e85FsZ-1" vertex="1">
          <mxGeometry x="480" y="480" width="40" height="40" as="geometry" />
        </mxCell>
        <mxCell id="ZK-D7Gfjk_ylwY2FKUO1-129" value="" style="whiteSpace=wrap;html=1;aspect=fixed;" parent="GhC_Zz8aewY0h3e85FsZ-1" vertex="1">
          <mxGeometry x="600" y="480" width="40" height="40" as="geometry" />
        </mxCell>
        <mxCell id="ZK-D7Gfjk_ylwY2FKUO1-130" value="" style="whiteSpace=wrap;html=1;aspect=fixed;" parent="GhC_Zz8aewY0h3e85FsZ-1" vertex="1">
          <mxGeometry x="400" y="520" width="40" height="40" as="geometry" />
        </mxCell>
        <mxCell id="ZK-D7Gfjk_ylwY2FKUO1-131" value="" style="whiteSpace=wrap;html=1;aspect=fixed;" parent="GhC_Zz8aewY0h3e85FsZ-1" vertex="1">
          <mxGeometry x="440" y="520" width="40" height="40" as="geometry" />
        </mxCell>
        <mxCell id="ZK-D7Gfjk_ylwY2FKUO1-132" value="" style="whiteSpace=wrap;html=1;aspect=fixed;" parent="GhC_Zz8aewY0h3e85FsZ-1" vertex="1">
          <mxGeometry x="520" y="520" width="40" height="40" as="geometry" />
        </mxCell>
        <mxCell id="ZK-D7Gfjk_ylwY2FKUO1-133" value="" style="whiteSpace=wrap;html=1;aspect=fixed;fillColor=#eeeeee;strokeColor=#36393d;" parent="GhC_Zz8aewY0h3e85FsZ-1" vertex="1">
          <mxGeometry x="560" y="520" width="40" height="40" as="geometry" />
        </mxCell>
        <mxCell id="ZK-D7Gfjk_ylwY2FKUO1-134" value="" style="whiteSpace=wrap;html=1;aspect=fixed;" parent="GhC_Zz8aewY0h3e85FsZ-1" vertex="1">
          <mxGeometry x="480" y="520" width="40" height="40" as="geometry" />
        </mxCell>
        <mxCell id="ZK-D7Gfjk_ylwY2FKUO1-135" value="" style="whiteSpace=wrap;html=1;aspect=fixed;" parent="GhC_Zz8aewY0h3e85FsZ-1" vertex="1">
          <mxGeometry x="400" y="440" width="40" height="40" as="geometry" />
        </mxCell>
        <mxCell id="ZK-D7Gfjk_ylwY2FKUO1-136" value="S" style="whiteSpace=wrap;html=1;aspect=fixed;fillColor=#d5e8d4;strokeColor=#82b366;" parent="GhC_Zz8aewY0h3e85FsZ-1" vertex="1">
          <mxGeometry x="400" y="360" width="40" height="40" as="geometry" />
        </mxCell>
        <mxCell id="ZK-D7Gfjk_ylwY2FKUO1-137" value="" style="whiteSpace=wrap;html=1;aspect=fixed;" parent="GhC_Zz8aewY0h3e85FsZ-1" vertex="1">
          <mxGeometry x="400" y="480" width="40" height="40" as="geometry" />
        </mxCell>
        <mxCell id="ZK-D7Gfjk_ylwY2FKUO1-138" value="" style="whiteSpace=wrap;html=1;aspect=fixed;" parent="GhC_Zz8aewY0h3e85FsZ-1" vertex="1">
          <mxGeometry x="120" y="600" width="40" height="40" as="geometry" />
        </mxCell>
        <mxCell id="ZK-D7Gfjk_ylwY2FKUO1-139" value="" style="whiteSpace=wrap;html=1;aspect=fixed;" parent="GhC_Zz8aewY0h3e85FsZ-1" vertex="1">
          <mxGeometry x="200" y="600" width="40" height="40" as="geometry" />
        </mxCell>
        <mxCell id="ZK-D7Gfjk_ylwY2FKUO1-140" value="" style="whiteSpace=wrap;html=1;aspect=fixed;" parent="GhC_Zz8aewY0h3e85FsZ-1" vertex="1">
          <mxGeometry x="240" y="600" width="40" height="40" as="geometry" />
        </mxCell>
        <mxCell id="ZK-D7Gfjk_ylwY2FKUO1-141" value="" style="whiteSpace=wrap;html=1;aspect=fixed;fillColor=#eeeeee;strokeColor=#36393d;" parent="GhC_Zz8aewY0h3e85FsZ-1" vertex="1">
          <mxGeometry x="160" y="600" width="40" height="40" as="geometry" />
        </mxCell>
        <mxCell id="ZK-D7Gfjk_ylwY2FKUO1-142" value="" style="whiteSpace=wrap;html=1;aspect=fixed;" parent="GhC_Zz8aewY0h3e85FsZ-1" vertex="1">
          <mxGeometry x="280" y="600" width="40" height="40" as="geometry" />
        </mxCell>
        <mxCell id="ZK-D7Gfjk_ylwY2FKUO1-143" value="" style="whiteSpace=wrap;html=1;aspect=fixed;" parent="GhC_Zz8aewY0h3e85FsZ-1" vertex="1">
          <mxGeometry x="80" y="640" width="40" height="40" as="geometry" />
        </mxCell>
        <mxCell id="ZK-D7Gfjk_ylwY2FKUO1-144" value="" style="whiteSpace=wrap;html=1;aspect=fixed;" parent="GhC_Zz8aewY0h3e85FsZ-1" vertex="1">
          <mxGeometry x="120" y="640" width="40" height="40" as="geometry" />
        </mxCell>
        <mxCell id="ZK-D7Gfjk_ylwY2FKUO1-145" value="" style="whiteSpace=wrap;html=1;aspect=fixed;" parent="GhC_Zz8aewY0h3e85FsZ-1" vertex="1">
          <mxGeometry x="200" y="640" width="40" height="40" as="geometry" />
        </mxCell>
        <mxCell id="ZK-D7Gfjk_ylwY2FKUO1-146" value="" style="whiteSpace=wrap;html=1;aspect=fixed;" parent="GhC_Zz8aewY0h3e85FsZ-1" vertex="1">
          <mxGeometry x="240" y="640" width="40" height="40" as="geometry" />
        </mxCell>
        <mxCell id="ZK-D7Gfjk_ylwY2FKUO1-147" value="" style="whiteSpace=wrap;html=1;aspect=fixed;fillColor=#eeeeee;strokeColor=#36393d;" parent="GhC_Zz8aewY0h3e85FsZ-1" vertex="1">
          <mxGeometry x="160" y="640" width="40" height="40" as="geometry" />
        </mxCell>
        <mxCell id="ZK-D7Gfjk_ylwY2FKUO1-148" value="" style="whiteSpace=wrap;html=1;aspect=fixed;" parent="GhC_Zz8aewY0h3e85FsZ-1" vertex="1">
          <mxGeometry x="280" y="640" width="40" height="40" as="geometry" />
        </mxCell>
        <mxCell id="ZK-D7Gfjk_ylwY2FKUO1-149" value="G" style="whiteSpace=wrap;html=1;aspect=fixed;fillColor=#f8cecc;strokeColor=#b85450;" parent="GhC_Zz8aewY0h3e85FsZ-1" vertex="1">
          <mxGeometry x="280" y="760" width="40" height="40" as="geometry" />
        </mxCell>
        <mxCell id="ZK-D7Gfjk_ylwY2FKUO1-150" value="" style="whiteSpace=wrap;html=1;aspect=fixed;" parent="GhC_Zz8aewY0h3e85FsZ-1" vertex="1">
          <mxGeometry x="120" y="680" width="40" height="40" as="geometry" />
        </mxCell>
        <mxCell id="ZK-D7Gfjk_ylwY2FKUO1-151" value="" style="whiteSpace=wrap;html=1;aspect=fixed;" parent="GhC_Zz8aewY0h3e85FsZ-1" vertex="1">
          <mxGeometry x="200" y="680" width="40" height="40" as="geometry" />
        </mxCell>
        <mxCell id="ZK-D7Gfjk_ylwY2FKUO1-152" value="" style="whiteSpace=wrap;html=1;aspect=fixed;fillColor=#eeeeee;strokeColor=#36393d;" parent="GhC_Zz8aewY0h3e85FsZ-1" vertex="1">
          <mxGeometry x="240" y="680" width="40" height="40" as="geometry" />
        </mxCell>
        <mxCell id="ZK-D7Gfjk_ylwY2FKUO1-153" value="" style="whiteSpace=wrap;html=1;aspect=fixed;" parent="GhC_Zz8aewY0h3e85FsZ-1" vertex="1">
          <mxGeometry x="160" y="680" width="40" height="40" as="geometry" />
        </mxCell>
        <mxCell id="ZK-D7Gfjk_ylwY2FKUO1-154" value="" style="whiteSpace=wrap;html=1;aspect=fixed;" parent="GhC_Zz8aewY0h3e85FsZ-1" vertex="1">
          <mxGeometry x="280" y="680" width="40" height="40" as="geometry" />
        </mxCell>
        <mxCell id="ZK-D7Gfjk_ylwY2FKUO1-155" value="" style="whiteSpace=wrap;html=1;aspect=fixed;fillColor=#dae8fc;strokeColor=#6c8ebf;" parent="GhC_Zz8aewY0h3e85FsZ-1" vertex="1">
          <mxGeometry x="80" y="720" width="40" height="40" as="geometry" />
        </mxCell>
        <mxCell id="ZK-D7Gfjk_ylwY2FKUO1-156" value="" style="whiteSpace=wrap;html=1;aspect=fixed;" parent="GhC_Zz8aewY0h3e85FsZ-1" vertex="1">
          <mxGeometry x="120" y="720" width="40" height="40" as="geometry" />
        </mxCell>
        <mxCell id="ZK-D7Gfjk_ylwY2FKUO1-157" value="" style="whiteSpace=wrap;html=1;aspect=fixed;fillColor=#eeeeee;strokeColor=#36393d;" parent="GhC_Zz8aewY0h3e85FsZ-1" vertex="1">
          <mxGeometry x="200" y="720" width="40" height="40" as="geometry" />
        </mxCell>
        <mxCell id="ZK-D7Gfjk_ylwY2FKUO1-158" value="" style="whiteSpace=wrap;html=1;aspect=fixed;fillColor=#eeeeee;strokeColor=#36393d;" parent="GhC_Zz8aewY0h3e85FsZ-1" vertex="1">
          <mxGeometry x="240" y="720" width="40" height="40" as="geometry" />
        </mxCell>
        <mxCell id="ZK-D7Gfjk_ylwY2FKUO1-159" value="" style="whiteSpace=wrap;html=1;aspect=fixed;fillColor=#eeeeee;strokeColor=#36393d;" parent="GhC_Zz8aewY0h3e85FsZ-1" vertex="1">
          <mxGeometry x="160" y="720" width="40" height="40" as="geometry" />
        </mxCell>
        <mxCell id="ZK-D7Gfjk_ylwY2FKUO1-160" value="" style="whiteSpace=wrap;html=1;aspect=fixed;" parent="GhC_Zz8aewY0h3e85FsZ-1" vertex="1">
          <mxGeometry x="280" y="720" width="40" height="40" as="geometry" />
        </mxCell>
        <mxCell id="ZK-D7Gfjk_ylwY2FKUO1-161" value="" style="whiteSpace=wrap;html=1;aspect=fixed;" parent="GhC_Zz8aewY0h3e85FsZ-1" vertex="1">
          <mxGeometry x="80" y="760" width="40" height="40" as="geometry" />
        </mxCell>
        <mxCell id="ZK-D7Gfjk_ylwY2FKUO1-162" value="" style="whiteSpace=wrap;html=1;aspect=fixed;" parent="GhC_Zz8aewY0h3e85FsZ-1" vertex="1">
          <mxGeometry x="120" y="760" width="40" height="40" as="geometry" />
        </mxCell>
        <mxCell id="ZK-D7Gfjk_ylwY2FKUO1-163" value="" style="whiteSpace=wrap;html=1;aspect=fixed;" parent="GhC_Zz8aewY0h3e85FsZ-1" vertex="1">
          <mxGeometry x="200" y="760" width="40" height="40" as="geometry" />
        </mxCell>
        <mxCell id="ZK-D7Gfjk_ylwY2FKUO1-164" value="" style="whiteSpace=wrap;html=1;aspect=fixed;fillColor=#eeeeee;strokeColor=#36393d;" parent="GhC_Zz8aewY0h3e85FsZ-1" vertex="1">
          <mxGeometry x="240" y="760" width="40" height="40" as="geometry" />
        </mxCell>
        <mxCell id="ZK-D7Gfjk_ylwY2FKUO1-165" value="" style="whiteSpace=wrap;html=1;aspect=fixed;" parent="GhC_Zz8aewY0h3e85FsZ-1" vertex="1">
          <mxGeometry x="160" y="760" width="40" height="40" as="geometry" />
        </mxCell>
        <mxCell id="ZK-D7Gfjk_ylwY2FKUO1-166" value="" style="whiteSpace=wrap;html=1;aspect=fixed;" parent="GhC_Zz8aewY0h3e85FsZ-1" vertex="1">
          <mxGeometry x="80" y="680" width="40" height="40" as="geometry" />
        </mxCell>
        <mxCell id="ZK-D7Gfjk_ylwY2FKUO1-167" value="S" style="whiteSpace=wrap;html=1;aspect=fixed;fillColor=#d5e8d4;strokeColor=#82b366;" parent="GhC_Zz8aewY0h3e85FsZ-1" vertex="1">
          <mxGeometry x="80" y="600" width="40" height="40" as="geometry" />
        </mxCell>
        <mxCell id="ZK-D7Gfjk_ylwY2FKUO1-168" value="" style="whiteSpace=wrap;html=1;aspect=fixed;" parent="GhC_Zz8aewY0h3e85FsZ-1" vertex="1">
          <mxGeometry x="80" y="720" width="40" height="40" as="geometry" />
        </mxCell>
        <mxCell id="ZK-D7Gfjk_ylwY2FKUO1-169" value="" style="whiteSpace=wrap;html=1;aspect=fixed;" parent="GhC_Zz8aewY0h3e85FsZ-1" vertex="1">
          <mxGeometry x="440" y="600" width="40" height="40" as="geometry" />
        </mxCell>
        <mxCell id="ZK-D7Gfjk_ylwY2FKUO1-170" value="" style="whiteSpace=wrap;html=1;aspect=fixed;" parent="GhC_Zz8aewY0h3e85FsZ-1" vertex="1">
          <mxGeometry x="520" y="600" width="40" height="40" as="geometry" />
        </mxCell>
        <mxCell id="ZK-D7Gfjk_ylwY2FKUO1-171" value="" style="whiteSpace=wrap;html=1;aspect=fixed;" parent="GhC_Zz8aewY0h3e85FsZ-1" vertex="1">
          <mxGeometry x="560" y="600" width="40" height="40" as="geometry" />
        </mxCell>
        <mxCell id="ZK-D7Gfjk_ylwY2FKUO1-172" value="" style="whiteSpace=wrap;html=1;aspect=fixed;fillColor=#eeeeee;strokeColor=#36393d;" parent="GhC_Zz8aewY0h3e85FsZ-1" vertex="1">
          <mxGeometry x="480" y="600" width="40" height="40" as="geometry" />
        </mxCell>
        <mxCell id="ZK-D7Gfjk_ylwY2FKUO1-173" value="" style="whiteSpace=wrap;html=1;aspect=fixed;" parent="GhC_Zz8aewY0h3e85FsZ-1" vertex="1">
          <mxGeometry x="600" y="600" width="40" height="40" as="geometry" />
        </mxCell>
        <mxCell id="ZK-D7Gfjk_ylwY2FKUO1-174" value="" style="whiteSpace=wrap;html=1;aspect=fixed;" parent="GhC_Zz8aewY0h3e85FsZ-1" vertex="1">
          <mxGeometry x="400" y="640" width="40" height="40" as="geometry" />
        </mxCell>
        <mxCell id="ZK-D7Gfjk_ylwY2FKUO1-175" value="" style="whiteSpace=wrap;html=1;aspect=fixed;" parent="GhC_Zz8aewY0h3e85FsZ-1" vertex="1">
          <mxGeometry x="440" y="640" width="40" height="40" as="geometry" />
        </mxCell>
        <mxCell id="ZK-D7Gfjk_ylwY2FKUO1-176" value="" style="whiteSpace=wrap;html=1;aspect=fixed;" parent="GhC_Zz8aewY0h3e85FsZ-1" vertex="1">
          <mxGeometry x="520" y="640" width="40" height="40" as="geometry" />
        </mxCell>
        <mxCell id="ZK-D7Gfjk_ylwY2FKUO1-177" value="" style="whiteSpace=wrap;html=1;aspect=fixed;" parent="GhC_Zz8aewY0h3e85FsZ-1" vertex="1">
          <mxGeometry x="560" y="640" width="40" height="40" as="geometry" />
        </mxCell>
        <mxCell id="ZK-D7Gfjk_ylwY2FKUO1-178" value="" style="whiteSpace=wrap;html=1;aspect=fixed;fillColor=#eeeeee;strokeColor=#36393d;" parent="GhC_Zz8aewY0h3e85FsZ-1" vertex="1">
          <mxGeometry x="480" y="640" width="40" height="40" as="geometry" />
        </mxCell>
        <mxCell id="ZK-D7Gfjk_ylwY2FKUO1-179" value="" style="whiteSpace=wrap;html=1;aspect=fixed;" parent="GhC_Zz8aewY0h3e85FsZ-1" vertex="1">
          <mxGeometry x="600" y="640" width="40" height="40" as="geometry" />
        </mxCell>
        <mxCell id="ZK-D7Gfjk_ylwY2FKUO1-180" value="G" style="whiteSpace=wrap;html=1;aspect=fixed;fillColor=#f8cecc;strokeColor=#b85450;" parent="GhC_Zz8aewY0h3e85FsZ-1" vertex="1">
          <mxGeometry x="600" y="760" width="40" height="40" as="geometry" />
        </mxCell>
        <mxCell id="ZK-D7Gfjk_ylwY2FKUO1-181" value="" style="whiteSpace=wrap;html=1;aspect=fixed;" parent="GhC_Zz8aewY0h3e85FsZ-1" vertex="1">
          <mxGeometry x="440" y="680" width="40" height="40" as="geometry" />
        </mxCell>
        <mxCell id="ZK-D7Gfjk_ylwY2FKUO1-182" value="" style="whiteSpace=wrap;html=1;aspect=fixed;" parent="GhC_Zz8aewY0h3e85FsZ-1" vertex="1">
          <mxGeometry x="520" y="680" width="40" height="40" as="geometry" />
        </mxCell>
        <mxCell id="ZK-D7Gfjk_ylwY2FKUO1-183" value="" style="whiteSpace=wrap;html=1;aspect=fixed;fillColor=#eeeeee;strokeColor=#36393d;" parent="GhC_Zz8aewY0h3e85FsZ-1" vertex="1">
          <mxGeometry x="560" y="680" width="40" height="40" as="geometry" />
        </mxCell>
        <mxCell id="ZK-D7Gfjk_ylwY2FKUO1-184" value="" style="whiteSpace=wrap;html=1;aspect=fixed;" parent="GhC_Zz8aewY0h3e85FsZ-1" vertex="1">
          <mxGeometry x="480" y="680" width="40" height="40" as="geometry" />
        </mxCell>
        <mxCell id="ZK-D7Gfjk_ylwY2FKUO1-185" value="" style="whiteSpace=wrap;html=1;aspect=fixed;" parent="GhC_Zz8aewY0h3e85FsZ-1" vertex="1">
          <mxGeometry x="600" y="680" width="40" height="40" as="geometry" />
        </mxCell>
        <mxCell id="ZK-D7Gfjk_ylwY2FKUO1-186" value="" style="whiteSpace=wrap;html=1;aspect=fixed;fillColor=#dae8fc;strokeColor=#6c8ebf;" parent="GhC_Zz8aewY0h3e85FsZ-1" vertex="1">
          <mxGeometry x="400" y="720" width="40" height="40" as="geometry" />
        </mxCell>
        <mxCell id="ZK-D7Gfjk_ylwY2FKUO1-187" value="" style="whiteSpace=wrap;html=1;aspect=fixed;" parent="GhC_Zz8aewY0h3e85FsZ-1" vertex="1">
          <mxGeometry x="440" y="720" width="40" height="40" as="geometry" />
        </mxCell>
        <mxCell id="ZK-D7Gfjk_ylwY2FKUO1-188" value="" style="whiteSpace=wrap;html=1;aspect=fixed;fillColor=#eeeeee;strokeColor=#36393d;" parent="GhC_Zz8aewY0h3e85FsZ-1" vertex="1">
          <mxGeometry x="520" y="720" width="40" height="40" as="geometry" />
        </mxCell>
        <mxCell id="ZK-D7Gfjk_ylwY2FKUO1-189" value="" style="whiteSpace=wrap;html=1;aspect=fixed;fillColor=#eeeeee;strokeColor=#36393d;" parent="GhC_Zz8aewY0h3e85FsZ-1" vertex="1">
          <mxGeometry x="560" y="720" width="40" height="40" as="geometry" />
        </mxCell>
        <mxCell id="ZK-D7Gfjk_ylwY2FKUO1-190" value="" style="whiteSpace=wrap;html=1;aspect=fixed;fillColor=#eeeeee;strokeColor=#36393d;" parent="GhC_Zz8aewY0h3e85FsZ-1" vertex="1">
          <mxGeometry x="480" y="720" width="40" height="40" as="geometry" />
        </mxCell>
        <mxCell id="ZK-D7Gfjk_ylwY2FKUO1-191" value="" style="whiteSpace=wrap;html=1;aspect=fixed;" parent="GhC_Zz8aewY0h3e85FsZ-1" vertex="1">
          <mxGeometry x="600" y="720" width="40" height="40" as="geometry" />
        </mxCell>
        <mxCell id="ZK-D7Gfjk_ylwY2FKUO1-192" value="" style="whiteSpace=wrap;html=1;aspect=fixed;" parent="GhC_Zz8aewY0h3e85FsZ-1" vertex="1">
          <mxGeometry x="400" y="760" width="40" height="40" as="geometry" />
        </mxCell>
        <mxCell id="ZK-D7Gfjk_ylwY2FKUO1-193" value="" style="whiteSpace=wrap;html=1;aspect=fixed;" parent="GhC_Zz8aewY0h3e85FsZ-1" vertex="1">
          <mxGeometry x="440" y="760" width="40" height="40" as="geometry" />
        </mxCell>
        <mxCell id="ZK-D7Gfjk_ylwY2FKUO1-194" value="" style="whiteSpace=wrap;html=1;aspect=fixed;" parent="GhC_Zz8aewY0h3e85FsZ-1" vertex="1">
          <mxGeometry x="520" y="760" width="40" height="40" as="geometry" />
        </mxCell>
        <mxCell id="ZK-D7Gfjk_ylwY2FKUO1-195" value="" style="whiteSpace=wrap;html=1;aspect=fixed;fillColor=#eeeeee;strokeColor=#36393d;" parent="GhC_Zz8aewY0h3e85FsZ-1" vertex="1">
          <mxGeometry x="560" y="760" width="40" height="40" as="geometry" />
        </mxCell>
        <mxCell id="ZK-D7Gfjk_ylwY2FKUO1-196" value="" style="whiteSpace=wrap;html=1;aspect=fixed;" parent="GhC_Zz8aewY0h3e85FsZ-1" vertex="1">
          <mxGeometry x="480" y="760" width="40" height="40" as="geometry" />
        </mxCell>
        <mxCell id="ZK-D7Gfjk_ylwY2FKUO1-197" value="" style="whiteSpace=wrap;html=1;aspect=fixed;" parent="GhC_Zz8aewY0h3e85FsZ-1" vertex="1">
          <mxGeometry x="400" y="680" width="40" height="40" as="geometry" />
        </mxCell>
        <mxCell id="ZK-D7Gfjk_ylwY2FKUO1-198" value="S" style="whiteSpace=wrap;html=1;aspect=fixed;fillColor=#d5e8d4;strokeColor=#82b366;" parent="GhC_Zz8aewY0h3e85FsZ-1" vertex="1">
          <mxGeometry x="400" y="600" width="40" height="40" as="geometry" />
        </mxCell>
        <mxCell id="ZK-D7Gfjk_ylwY2FKUO1-199" value="" style="whiteSpace=wrap;html=1;aspect=fixed;" parent="GhC_Zz8aewY0h3e85FsZ-1" vertex="1">
          <mxGeometry x="400" y="720" width="40" height="40" as="geometry" />
        </mxCell>
        <mxCell id="ZK-D7Gfjk_ylwY2FKUO1-200" value="" style="whiteSpace=wrap;html=1;aspect=fixed;" parent="GhC_Zz8aewY0h3e85FsZ-1" vertex="1">
          <mxGeometry x="120" y="840" width="40" height="40" as="geometry" />
        </mxCell>
        <mxCell id="ZK-D7Gfjk_ylwY2FKUO1-201" value="" style="whiteSpace=wrap;html=1;aspect=fixed;" parent="GhC_Zz8aewY0h3e85FsZ-1" vertex="1">
          <mxGeometry x="200" y="840" width="40" height="40" as="geometry" />
        </mxCell>
        <mxCell id="ZK-D7Gfjk_ylwY2FKUO1-202" value="" style="whiteSpace=wrap;html=1;aspect=fixed;" parent="GhC_Zz8aewY0h3e85FsZ-1" vertex="1">
          <mxGeometry x="240" y="840" width="40" height="40" as="geometry" />
        </mxCell>
        <mxCell id="ZK-D7Gfjk_ylwY2FKUO1-203" value="" style="whiteSpace=wrap;html=1;aspect=fixed;fillColor=#eeeeee;strokeColor=#36393d;" parent="GhC_Zz8aewY0h3e85FsZ-1" vertex="1">
          <mxGeometry x="160" y="840" width="40" height="40" as="geometry" />
        </mxCell>
        <mxCell id="ZK-D7Gfjk_ylwY2FKUO1-204" value="" style="whiteSpace=wrap;html=1;aspect=fixed;" parent="GhC_Zz8aewY0h3e85FsZ-1" vertex="1">
          <mxGeometry x="280" y="840" width="40" height="40" as="geometry" />
        </mxCell>
        <mxCell id="ZK-D7Gfjk_ylwY2FKUO1-205" value="" style="whiteSpace=wrap;html=1;aspect=fixed;" parent="GhC_Zz8aewY0h3e85FsZ-1" vertex="1">
          <mxGeometry x="80" y="880" width="40" height="40" as="geometry" />
        </mxCell>
        <mxCell id="ZK-D7Gfjk_ylwY2FKUO1-206" value="" style="whiteSpace=wrap;html=1;aspect=fixed;" parent="GhC_Zz8aewY0h3e85FsZ-1" vertex="1">
          <mxGeometry x="120" y="880" width="40" height="40" as="geometry" />
        </mxCell>
        <mxCell id="ZK-D7Gfjk_ylwY2FKUO1-207" value="" style="whiteSpace=wrap;html=1;aspect=fixed;" parent="GhC_Zz8aewY0h3e85FsZ-1" vertex="1">
          <mxGeometry x="200" y="880" width="40" height="40" as="geometry" />
        </mxCell>
        <mxCell id="ZK-D7Gfjk_ylwY2FKUO1-208" value="" style="whiteSpace=wrap;html=1;aspect=fixed;" parent="GhC_Zz8aewY0h3e85FsZ-1" vertex="1">
          <mxGeometry x="240" y="880" width="40" height="40" as="geometry" />
        </mxCell>
        <mxCell id="ZK-D7Gfjk_ylwY2FKUO1-209" value="" style="whiteSpace=wrap;html=1;aspect=fixed;fillColor=#eeeeee;strokeColor=#36393d;" parent="GhC_Zz8aewY0h3e85FsZ-1" vertex="1">
          <mxGeometry x="160" y="880" width="40" height="40" as="geometry" />
        </mxCell>
        <mxCell id="ZK-D7Gfjk_ylwY2FKUO1-210" value="" style="whiteSpace=wrap;html=1;aspect=fixed;" parent="GhC_Zz8aewY0h3e85FsZ-1" vertex="1">
          <mxGeometry x="280" y="880" width="40" height="40" as="geometry" />
        </mxCell>
        <mxCell id="ZK-D7Gfjk_ylwY2FKUO1-211" value="G" style="whiteSpace=wrap;html=1;aspect=fixed;fillColor=#f8cecc;strokeColor=#b85450;" parent="GhC_Zz8aewY0h3e85FsZ-1" vertex="1">
          <mxGeometry x="280" y="1000" width="40" height="40" as="geometry" />
        </mxCell>
        <mxCell id="ZK-D7Gfjk_ylwY2FKUO1-212" value="" style="whiteSpace=wrap;html=1;aspect=fixed;" parent="GhC_Zz8aewY0h3e85FsZ-1" vertex="1">
          <mxGeometry x="120" y="920" width="40" height="40" as="geometry" />
        </mxCell>
        <mxCell id="ZK-D7Gfjk_ylwY2FKUO1-213" value="" style="whiteSpace=wrap;html=1;aspect=fixed;" parent="GhC_Zz8aewY0h3e85FsZ-1" vertex="1">
          <mxGeometry x="200" y="920" width="40" height="40" as="geometry" />
        </mxCell>
        <mxCell id="ZK-D7Gfjk_ylwY2FKUO1-214" value="" style="whiteSpace=wrap;html=1;aspect=fixed;fillColor=#eeeeee;strokeColor=#36393d;" parent="GhC_Zz8aewY0h3e85FsZ-1" vertex="1">
          <mxGeometry x="240" y="920" width="40" height="40" as="geometry" />
        </mxCell>
        <mxCell id="ZK-D7Gfjk_ylwY2FKUO1-215" value="" style="whiteSpace=wrap;html=1;aspect=fixed;" parent="GhC_Zz8aewY0h3e85FsZ-1" vertex="1">
          <mxGeometry x="160" y="920" width="40" height="40" as="geometry" />
        </mxCell>
        <mxCell id="ZK-D7Gfjk_ylwY2FKUO1-216" value="" style="whiteSpace=wrap;html=1;aspect=fixed;" parent="GhC_Zz8aewY0h3e85FsZ-1" vertex="1">
          <mxGeometry x="280" y="920" width="40" height="40" as="geometry" />
        </mxCell>
        <mxCell id="ZK-D7Gfjk_ylwY2FKUO1-217" value="" style="whiteSpace=wrap;html=1;aspect=fixed;fillColor=#dae8fc;strokeColor=#6c8ebf;" parent="GhC_Zz8aewY0h3e85FsZ-1" vertex="1">
          <mxGeometry x="80" y="960" width="40" height="40" as="geometry" />
        </mxCell>
        <mxCell id="ZK-D7Gfjk_ylwY2FKUO1-218" value="" style="whiteSpace=wrap;html=1;aspect=fixed;" parent="GhC_Zz8aewY0h3e85FsZ-1" vertex="1">
          <mxGeometry x="120" y="960" width="40" height="40" as="geometry" />
        </mxCell>
        <mxCell id="ZK-D7Gfjk_ylwY2FKUO1-219" value="" style="whiteSpace=wrap;html=1;aspect=fixed;fillColor=#eeeeee;strokeColor=#36393d;" parent="GhC_Zz8aewY0h3e85FsZ-1" vertex="1">
          <mxGeometry x="200" y="960" width="40" height="40" as="geometry" />
        </mxCell>
        <mxCell id="ZK-D7Gfjk_ylwY2FKUO1-220" value="" style="whiteSpace=wrap;html=1;aspect=fixed;fillColor=#eeeeee;strokeColor=#36393d;" parent="GhC_Zz8aewY0h3e85FsZ-1" vertex="1">
          <mxGeometry x="240" y="960" width="40" height="40" as="geometry" />
        </mxCell>
        <mxCell id="ZK-D7Gfjk_ylwY2FKUO1-221" value="" style="whiteSpace=wrap;html=1;aspect=fixed;fillColor=#eeeeee;strokeColor=#36393d;" parent="GhC_Zz8aewY0h3e85FsZ-1" vertex="1">
          <mxGeometry x="160" y="960" width="40" height="40" as="geometry" />
        </mxCell>
        <mxCell id="ZK-D7Gfjk_ylwY2FKUO1-222" value="" style="whiteSpace=wrap;html=1;aspect=fixed;" parent="GhC_Zz8aewY0h3e85FsZ-1" vertex="1">
          <mxGeometry x="280" y="960" width="40" height="40" as="geometry" />
        </mxCell>
        <mxCell id="ZK-D7Gfjk_ylwY2FKUO1-223" value="" style="whiteSpace=wrap;html=1;aspect=fixed;" parent="GhC_Zz8aewY0h3e85FsZ-1" vertex="1">
          <mxGeometry x="80" y="1000" width="40" height="40" as="geometry" />
        </mxCell>
        <mxCell id="ZK-D7Gfjk_ylwY2FKUO1-224" value="" style="whiteSpace=wrap;html=1;aspect=fixed;" parent="GhC_Zz8aewY0h3e85FsZ-1" vertex="1">
          <mxGeometry x="120" y="1000" width="40" height="40" as="geometry" />
        </mxCell>
        <mxCell id="ZK-D7Gfjk_ylwY2FKUO1-225" value="" style="whiteSpace=wrap;html=1;aspect=fixed;" parent="GhC_Zz8aewY0h3e85FsZ-1" vertex="1">
          <mxGeometry x="200" y="1000" width="40" height="40" as="geometry" />
        </mxCell>
        <mxCell id="ZK-D7Gfjk_ylwY2FKUO1-226" value="" style="whiteSpace=wrap;html=1;aspect=fixed;fillColor=#eeeeee;strokeColor=#36393d;" parent="GhC_Zz8aewY0h3e85FsZ-1" vertex="1">
          <mxGeometry x="240" y="1000" width="40" height="40" as="geometry" />
        </mxCell>
        <mxCell id="ZK-D7Gfjk_ylwY2FKUO1-227" value="" style="whiteSpace=wrap;html=1;aspect=fixed;" parent="GhC_Zz8aewY0h3e85FsZ-1" vertex="1">
          <mxGeometry x="160" y="1000" width="40" height="40" as="geometry" />
        </mxCell>
        <mxCell id="ZK-D7Gfjk_ylwY2FKUO1-228" value="" style="whiteSpace=wrap;html=1;aspect=fixed;" parent="GhC_Zz8aewY0h3e85FsZ-1" vertex="1">
          <mxGeometry x="80" y="920" width="40" height="40" as="geometry" />
        </mxCell>
        <mxCell id="ZK-D7Gfjk_ylwY2FKUO1-229" value="S" style="whiteSpace=wrap;html=1;aspect=fixed;fillColor=#d5e8d4;strokeColor=#82b366;" parent="GhC_Zz8aewY0h3e85FsZ-1" vertex="1">
          <mxGeometry x="80" y="840" width="40" height="40" as="geometry" />
        </mxCell>
        <mxCell id="ZK-D7Gfjk_ylwY2FKUO1-230" value="" style="whiteSpace=wrap;html=1;aspect=fixed;" parent="GhC_Zz8aewY0h3e85FsZ-1" vertex="1">
          <mxGeometry x="80" y="960" width="40" height="40" as="geometry" />
        </mxCell>
        <mxCell id="ZK-D7Gfjk_ylwY2FKUO1-231" value="" style="whiteSpace=wrap;html=1;aspect=fixed;" parent="GhC_Zz8aewY0h3e85FsZ-1" vertex="1">
          <mxGeometry x="440" y="840" width="40" height="40" as="geometry" />
        </mxCell>
        <mxCell id="ZK-D7Gfjk_ylwY2FKUO1-232" value="" style="whiteSpace=wrap;html=1;aspect=fixed;" parent="GhC_Zz8aewY0h3e85FsZ-1" vertex="1">
          <mxGeometry x="520" y="840" width="40" height="40" as="geometry" />
        </mxCell>
        <mxCell id="ZK-D7Gfjk_ylwY2FKUO1-233" value="" style="whiteSpace=wrap;html=1;aspect=fixed;" parent="GhC_Zz8aewY0h3e85FsZ-1" vertex="1">
          <mxGeometry x="560" y="840" width="40" height="40" as="geometry" />
        </mxCell>
        <mxCell id="ZK-D7Gfjk_ylwY2FKUO1-234" value="" style="whiteSpace=wrap;html=1;aspect=fixed;fillColor=#eeeeee;strokeColor=#36393d;" parent="GhC_Zz8aewY0h3e85FsZ-1" vertex="1">
          <mxGeometry x="480" y="840" width="40" height="40" as="geometry" />
        </mxCell>
        <mxCell id="ZK-D7Gfjk_ylwY2FKUO1-235" value="" style="whiteSpace=wrap;html=1;aspect=fixed;" parent="GhC_Zz8aewY0h3e85FsZ-1" vertex="1">
          <mxGeometry x="600" y="840" width="40" height="40" as="geometry" />
        </mxCell>
        <mxCell id="ZK-D7Gfjk_ylwY2FKUO1-236" value="" style="whiteSpace=wrap;html=1;aspect=fixed;" parent="GhC_Zz8aewY0h3e85FsZ-1" vertex="1">
          <mxGeometry x="400" y="880" width="40" height="40" as="geometry" />
        </mxCell>
        <mxCell id="ZK-D7Gfjk_ylwY2FKUO1-237" value="" style="whiteSpace=wrap;html=1;aspect=fixed;" parent="GhC_Zz8aewY0h3e85FsZ-1" vertex="1">
          <mxGeometry x="440" y="880" width="40" height="40" as="geometry" />
        </mxCell>
        <mxCell id="ZK-D7Gfjk_ylwY2FKUO1-238" value="" style="whiteSpace=wrap;html=1;aspect=fixed;" parent="GhC_Zz8aewY0h3e85FsZ-1" vertex="1">
          <mxGeometry x="520" y="880" width="40" height="40" as="geometry" />
        </mxCell>
        <mxCell id="ZK-D7Gfjk_ylwY2FKUO1-239" value="" style="whiteSpace=wrap;html=1;aspect=fixed;" parent="GhC_Zz8aewY0h3e85FsZ-1" vertex="1">
          <mxGeometry x="560" y="880" width="40" height="40" as="geometry" />
        </mxCell>
        <mxCell id="ZK-D7Gfjk_ylwY2FKUO1-240" value="" style="whiteSpace=wrap;html=1;aspect=fixed;fillColor=#eeeeee;strokeColor=#36393d;" parent="GhC_Zz8aewY0h3e85FsZ-1" vertex="1">
          <mxGeometry x="480" y="880" width="40" height="40" as="geometry" />
        </mxCell>
        <mxCell id="ZK-D7Gfjk_ylwY2FKUO1-241" value="" style="whiteSpace=wrap;html=1;aspect=fixed;" parent="GhC_Zz8aewY0h3e85FsZ-1" vertex="1">
          <mxGeometry x="600" y="880" width="40" height="40" as="geometry" />
        </mxCell>
        <mxCell id="ZK-D7Gfjk_ylwY2FKUO1-242" value="G" style="whiteSpace=wrap;html=1;aspect=fixed;fillColor=#f8cecc;strokeColor=#b85450;" parent="GhC_Zz8aewY0h3e85FsZ-1" vertex="1">
          <mxGeometry x="600" y="1000" width="40" height="40" as="geometry" />
        </mxCell>
        <mxCell id="ZK-D7Gfjk_ylwY2FKUO1-243" value="" style="whiteSpace=wrap;html=1;aspect=fixed;" parent="GhC_Zz8aewY0h3e85FsZ-1" vertex="1">
          <mxGeometry x="440" y="920" width="40" height="40" as="geometry" />
        </mxCell>
        <mxCell id="ZK-D7Gfjk_ylwY2FKUO1-244" value="" style="whiteSpace=wrap;html=1;aspect=fixed;" parent="GhC_Zz8aewY0h3e85FsZ-1" vertex="1">
          <mxGeometry x="520" y="920" width="40" height="40" as="geometry" />
        </mxCell>
        <mxCell id="ZK-D7Gfjk_ylwY2FKUO1-245" value="" style="whiteSpace=wrap;html=1;aspect=fixed;fillColor=#eeeeee;strokeColor=#36393d;" parent="GhC_Zz8aewY0h3e85FsZ-1" vertex="1">
          <mxGeometry x="560" y="920" width="40" height="40" as="geometry" />
        </mxCell>
        <mxCell id="ZK-D7Gfjk_ylwY2FKUO1-246" value="" style="whiteSpace=wrap;html=1;aspect=fixed;" parent="GhC_Zz8aewY0h3e85FsZ-1" vertex="1">
          <mxGeometry x="480" y="920" width="40" height="40" as="geometry" />
        </mxCell>
        <mxCell id="ZK-D7Gfjk_ylwY2FKUO1-247" value="" style="whiteSpace=wrap;html=1;aspect=fixed;" parent="GhC_Zz8aewY0h3e85FsZ-1" vertex="1">
          <mxGeometry x="600" y="920" width="40" height="40" as="geometry" />
        </mxCell>
        <mxCell id="ZK-D7Gfjk_ylwY2FKUO1-248" value="" style="whiteSpace=wrap;html=1;aspect=fixed;fillColor=#dae8fc;strokeColor=#6c8ebf;" parent="GhC_Zz8aewY0h3e85FsZ-1" vertex="1">
          <mxGeometry x="400" y="960" width="40" height="40" as="geometry" />
        </mxCell>
        <mxCell id="ZK-D7Gfjk_ylwY2FKUO1-249" value="" style="whiteSpace=wrap;html=1;aspect=fixed;" parent="GhC_Zz8aewY0h3e85FsZ-1" vertex="1">
          <mxGeometry x="440" y="960" width="40" height="40" as="geometry" />
        </mxCell>
        <mxCell id="ZK-D7Gfjk_ylwY2FKUO1-250" value="" style="whiteSpace=wrap;html=1;aspect=fixed;fillColor=#eeeeee;strokeColor=#36393d;" parent="GhC_Zz8aewY0h3e85FsZ-1" vertex="1">
          <mxGeometry x="520" y="960" width="40" height="40" as="geometry" />
        </mxCell>
        <mxCell id="ZK-D7Gfjk_ylwY2FKUO1-251" value="" style="whiteSpace=wrap;html=1;aspect=fixed;fillColor=#eeeeee;strokeColor=#36393d;" parent="GhC_Zz8aewY0h3e85FsZ-1" vertex="1">
          <mxGeometry x="560" y="960" width="40" height="40" as="geometry" />
        </mxCell>
        <mxCell id="ZK-D7Gfjk_ylwY2FKUO1-252" value="" style="whiteSpace=wrap;html=1;aspect=fixed;fillColor=#eeeeee;strokeColor=#36393d;" parent="GhC_Zz8aewY0h3e85FsZ-1" vertex="1">
          <mxGeometry x="480" y="960" width="40" height="40" as="geometry" />
        </mxCell>
        <mxCell id="ZK-D7Gfjk_ylwY2FKUO1-253" value="" style="whiteSpace=wrap;html=1;aspect=fixed;" parent="GhC_Zz8aewY0h3e85FsZ-1" vertex="1">
          <mxGeometry x="600" y="960" width="40" height="40" as="geometry" />
        </mxCell>
        <mxCell id="ZK-D7Gfjk_ylwY2FKUO1-254" value="" style="whiteSpace=wrap;html=1;aspect=fixed;" parent="GhC_Zz8aewY0h3e85FsZ-1" vertex="1">
          <mxGeometry x="400" y="1000" width="40" height="40" as="geometry" />
        </mxCell>
        <mxCell id="ZK-D7Gfjk_ylwY2FKUO1-255" value="" style="whiteSpace=wrap;html=1;aspect=fixed;" parent="GhC_Zz8aewY0h3e85FsZ-1" vertex="1">
          <mxGeometry x="440" y="1000" width="40" height="40" as="geometry" />
        </mxCell>
        <mxCell id="ZK-D7Gfjk_ylwY2FKUO1-256" value="" style="whiteSpace=wrap;html=1;aspect=fixed;" parent="GhC_Zz8aewY0h3e85FsZ-1" vertex="1">
          <mxGeometry x="520" y="1000" width="40" height="40" as="geometry" />
        </mxCell>
        <mxCell id="ZK-D7Gfjk_ylwY2FKUO1-257" value="" style="whiteSpace=wrap;html=1;aspect=fixed;fillColor=#eeeeee;strokeColor=#36393d;" parent="GhC_Zz8aewY0h3e85FsZ-1" vertex="1">
          <mxGeometry x="560" y="1000" width="40" height="40" as="geometry" />
        </mxCell>
        <mxCell id="ZK-D7Gfjk_ylwY2FKUO1-258" value="" style="whiteSpace=wrap;html=1;aspect=fixed;" parent="GhC_Zz8aewY0h3e85FsZ-1" vertex="1">
          <mxGeometry x="480" y="1000" width="40" height="40" as="geometry" />
        </mxCell>
        <mxCell id="ZK-D7Gfjk_ylwY2FKUO1-259" value="" style="whiteSpace=wrap;html=1;aspect=fixed;" parent="GhC_Zz8aewY0h3e85FsZ-1" vertex="1">
          <mxGeometry x="400" y="920" width="40" height="40" as="geometry" />
        </mxCell>
        <mxCell id="ZK-D7Gfjk_ylwY2FKUO1-260" value="S" style="whiteSpace=wrap;html=1;aspect=fixed;fillColor=#d5e8d4;strokeColor=#82b366;" parent="GhC_Zz8aewY0h3e85FsZ-1" vertex="1">
          <mxGeometry x="400" y="840" width="40" height="40" as="geometry" />
        </mxCell>
        <mxCell id="ZK-D7Gfjk_ylwY2FKUO1-261" value="" style="whiteSpace=wrap;html=1;aspect=fixed;" parent="GhC_Zz8aewY0h3e85FsZ-1" vertex="1">
          <mxGeometry x="400" y="960" width="40" height="40" as="geometry" />
        </mxCell>
      </root>
    </mxGraphModel>
  </diagram>
</mxfile>
